<?xml version="1.0" encoding="utf-8" standalone="no"?>
<!DOCTYPE svg PUBLIC "-//W3C//DTD SVG 1.1//EN"
  "http://www.w3.org/Graphics/SVG/1.1/DTD/svg11.dtd">
<svg xmlns:xlink="http://www.w3.org/1999/xlink" width="826pt" height="856.637812pt" viewBox="0 0 826 856.637812" xmlns="http://www.w3.org/2000/svg" version="1.1">
 <metadata>
  <rdf:RDF xmlns:dc="http://purl.org/dc/elements/1.1/" xmlns:cc="http://creativecommons.org/ns#" xmlns:rdf="http://www.w3.org/1999/02/22-rdf-syntax-ns#">
   <cc:Work>
    <dc:type rdf:resource="http://purl.org/dc/dcmitype/StillImage"/>
    <dc:date>2025-02-24T03:08:08.782815</dc:date>
    <dc:format>image/svg+xml</dc:format>
    <dc:creator>
     <cc:Agent>
      <dc:title>Matplotlib v3.10.0, https://matplotlib.org/</dc:title>
     </cc:Agent>
    </dc:creator>
   </cc:Work>
  </rdf:RDF>
 </metadata>
 <defs>
  <style type="text/css">*{stroke-linejoin: round; stroke-linecap: butt}</style>
 </defs>
 <g id="figure_1">
  <g id="patch_1">
   <path d="M 0 856.637812 
L 826 856.637812 
L 826 0 
L 0 0 
z
"/>
  </g>
  <g id="patch_2">
   <path d="M 7.2 849.437812 
L 818.8 849.437812 
L 818.8 37.837812 
L 7.2 37.837812 
z
"/>
  </g>
  <g id="pane3d_1">
   <g id="patch_3">
    <path d="M 423.967568 533.458074 
L 758.972986 655.268958 
L 771.821261 201.534328 
L 423.967568 106.838914 
" style="fill: none; opacity: 0.5; stroke: #f2f2f2; stroke-linejoin: miter"/>
   </g>
  </g>
  <g id="pane3d_2">
   <g id="patch_4">
    <path d="M 423.967568 533.458074 
L 88.962149 655.268958 
L 76.113874 201.534328 
L 423.967568 106.838914 
" style="fill: none; opacity: 0.5; stroke: #e6e6e6; stroke-linejoin: miter"/>
   </g>
  </g>
  <g id="pane3d_3">
   <g id="patch_5">
    <path d="M 423.967568 533.458074 
L 88.962149 655.268958 
L 423.967568 795.91295 
L 758.972986 655.268958 
" style="fill: none; opacity: 0.5; stroke: #ececec; stroke-linejoin: miter"/>
   </g>
  </g>
  <g id="grid3d_1">
   <g id="Line3DCollection_1">
    <path d="M 758.972986 655.268958 
L 423.967568 533.458074 
L 423.967568 106.838914 
" style="fill: none; stroke: #ffffff; stroke-width: 0.8"/>
    <path d="M 706.517934 677.290954 
L 371.283716 552.614381 
L 369.381286 121.698812 
" style="fill: none; stroke: #ffffff; stroke-width: 0.8"/>
    <path d="M 652.777455 699.852605 
L 317.397242 572.207971 
L 313.503428 136.910314 
" style="fill: none; stroke: #ffffff; stroke-width: 0.8"/>
    <path d="M 597.703713 722.973995 
L 262.266491 592.253992 
L 256.287603 152.486047 
" style="fill: none; stroke: #ffffff; stroke-width: 0.8"/>
    <path d="M 541.246468 746.676216 
L 205.847864 612.768296 
L 197.685174 168.439252 
" style="fill: none; stroke: #ffffff; stroke-width: 0.8"/>
    <path d="M 483.352925 770.981432 
L 148.095699 633.767485 
L 137.645118 184.783819 
" style="fill: none; stroke: #ffffff; stroke-width: 0.8"/>
    <path d="M 423.967568 795.91295 
L 88.962149 655.268958 
L 76.113874 201.534328 
" style="fill: none; stroke: #ffffff; stroke-width: 0.8"/>
   </g>
  </g>
  <g id="grid3d_2">
   <g id="Line3DCollection_2">
    <path d="M 423.967568 106.838914 
L 423.967568 533.458074 
L 88.962149 655.268958 
" style="fill: none; stroke: #ffffff; stroke-width: 0.8"/>
    <path d="M 478.553849 121.698812 
L 476.651419 552.614381 
L 141.417201 677.290954 
" style="fill: none; stroke: #ffffff; stroke-width: 0.8"/>
    <path d="M 534.431707 136.910314 
L 530.537893 572.207971 
L 195.15768 699.852605 
" style="fill: none; stroke: #ffffff; stroke-width: 0.8"/>
    <path d="M 591.647532 152.486047 
L 585.668644 592.253992 
L 250.231422 722.973995 
" style="fill: none; stroke: #ffffff; stroke-width: 0.8"/>
    <path d="M 650.249961 168.439252 
L 642.087271 612.768296 
L 306.688667 746.676216 
" style="fill: none; stroke: #ffffff; stroke-width: 0.8"/>
    <path d="M 710.290017 184.783819 
L 699.839436 633.767485 
L 364.58221 770.981432 
" style="fill: none; stroke: #ffffff; stroke-width: 0.8"/>
    <path d="M 771.821261 201.534328 
L 758.972986 655.268958 
L 423.967568 795.91295 
" style="fill: none; stroke: #ffffff; stroke-width: 0.8"/>
   </g>
  </g>
  <g id="grid3d_3">
   <g id="Line3DCollection_3">
    <path d="M 88.962149 655.268958 
L 423.967568 533.458074 
L 758.972986 655.268958 
" style="fill: none; stroke: #ffffff; stroke-width: 0.8"/>
    <path d="M 86.88709 581.988587 
L 423.967568 464.408695 
L 761.048045 581.988587 
" style="fill: none; stroke: #ffffff; stroke-width: 0.8"/>
    <path d="M 84.786164 507.794745 
L 423.967568 394.556885 
L 763.148971 507.794745 
" style="fill: none; stroke: #ffffff; stroke-width: 0.8"/>
    <path d="M 82.658885 432.670245 
L 423.967568 323.888573 
L 765.27625 432.670245 
" style="fill: none; stroke: #ffffff; stroke-width: 0.8"/>
    <path d="M 80.504753 356.597465 
L 423.967568 252.38936 
L 767.430382 356.597465 
" style="fill: none; stroke: #ffffff; stroke-width: 0.8"/>
    <path d="M 78.323258 279.558336 
L 423.967568 180.044504 
L 769.611877 279.558336 
" style="fill: none; stroke: #ffffff; stroke-width: 0.8"/>
    <path d="M 76.113874 201.534328 
L 423.967568 106.838914 
L 771.821261 201.534328 
" style="fill: none; stroke: #ffffff; stroke-width: 0.8"/>
   </g>
  </g>
  <g id="axis3d_1">
   <g id="line2d_1">
    <path d="M 758.972986 655.268958 
L 423.967568 795.91295 
" style="fill: none; stroke: #ffffff; stroke-width: 0.8; stroke-linecap: square"/>
   </g>
   <g id="xtick_1">
    <g id="line2d_2">
     <path d="M 756.102277 654.225144 
L 764.724302 657.360187 
" style="fill: none; stroke: #ffffff; stroke-width: 0.8; stroke-linecap: square"/>
    </g>
    <g id="text_1">
     <!-- −1.5 -->
     <g style="fill: #ffffff" transform="translate(756.271884 678.321911) scale(0.1 -0.1)">
      <defs>
       <path id="DejaVuSans-2212" d="M 678 2272 
L 4684 2272 
L 4684 1741 
L 678 1741 
L 678 2272 
z
" transform="scale(0.015625)"/>
       <path id="DejaVuSans-31" d="M 794 531 
L 1825 531 
L 1825 4091 
L 703 3866 
L 703 4441 
L 1819 4666 
L 2450 4666 
L 2450 531 
L 3481 531 
L 3481 0 
L 794 0 
L 794 531 
z
" transform="scale(0.015625)"/>
       <path id="DejaVuSans-2e" d="M 684 794 
L 1344 794 
L 1344 0 
L 684 0 
L 684 794 
z
" transform="scale(0.015625)"/>
       <path id="DejaVuSans-35" d="M 691 4666 
L 3169 4666 
L 3169 4134 
L 1269 4134 
L 1269 2991 
Q 1406 3038 1543 3061 
Q 1681 3084 1819 3084 
Q 2600 3084 3056 2656 
Q 3513 2228 3513 1497 
Q 3513 744 3044 326 
Q 2575 -91 1722 -91 
Q 1428 -91 1123 -41 
Q 819 9 494 109 
L 494 744 
Q 775 591 1075 516 
Q 1375 441 1709 441 
Q 2250 441 2565 725 
Q 2881 1009 2881 1497 
Q 2881 1984 2565 2268 
Q 2250 2553 1709 2553 
Q 1456 2553 1204 2497 
Q 953 2441 691 2322 
L 691 4666 
z
" transform="scale(0.015625)"/>
      </defs>
      <use xlink:href="#DejaVuSans-2212"/>
      <use xlink:href="#DejaVuSans-31" transform="translate(83.789062 0)"/>
      <use xlink:href="#DejaVuSans-2e" transform="translate(147.412109 0)"/>
      <use xlink:href="#DejaVuSans-35" transform="translate(179.199219 0)"/>
     </g>
    </g>
   </g>
   <g id="xtick_2">
    <g id="line2d_3">
     <path d="M 703.642957 676.221724 
L 712.277923 679.433145 
" style="fill: none; stroke: #ffffff; stroke-width: 0.8; stroke-linecap: square"/>
    </g>
    <g id="text_2">
     <!-- −1.0 -->
     <g style="fill: #ffffff" transform="translate(703.880868 700.552288) scale(0.1 -0.1)">
      <defs>
       <path id="DejaVuSans-30" d="M 2034 4250 
Q 1547 4250 1301 3770 
Q 1056 3291 1056 2328 
Q 1056 1369 1301 889 
Q 1547 409 2034 409 
Q 2525 409 2770 889 
Q 3016 1369 3016 2328 
Q 3016 3291 2770 3770 
Q 2525 4250 2034 4250 
z
M 2034 4750 
Q 2819 4750 3233 4129 
Q 3647 3509 3647 2328 
Q 3647 1150 3233 529 
Q 2819 -91 2034 -91 
Q 1250 -91 836 529 
Q 422 1150 422 2328 
Q 422 3509 836 4129 
Q 1250 4750 2034 4750 
z
" transform="scale(0.015625)"/>
      </defs>
      <use xlink:href="#DejaVuSans-2212"/>
      <use xlink:href="#DejaVuSans-31" transform="translate(83.789062 0)"/>
      <use xlink:href="#DejaVuSans-2e" transform="translate(147.412109 0)"/>
      <use xlink:href="#DejaVuSans-30" transform="translate(179.199219 0)"/>
     </g>
    </g>
   </g>
   <g id="xtick_3">
    <g id="line2d_4">
     <path d="M 649.89886 698.757021 
L 658.544815 702.047644 
" style="fill: none; stroke: #ffffff; stroke-width: 0.8; stroke-linecap: square"/>
    </g>
    <g id="text_3">
     <!-- −0.5 -->
     <g style="fill: #ffffff" transform="translate(650.204747 723.327957) scale(0.1 -0.1)">
      <use xlink:href="#DejaVuSans-2212"/>
      <use xlink:href="#DejaVuSans-30" transform="translate(83.789062 0)"/>
      <use xlink:href="#DejaVuSans-2e" transform="translate(147.412109 0)"/>
      <use xlink:href="#DejaVuSans-35" transform="translate(179.199219 0)"/>
     </g>
    </g>
   </g>
   <g id="xtick_4">
    <g id="line2d_5">
     <path d="M 594.822204 721.85107 
L 603.477038 725.223862 
" style="fill: none; stroke: #ffffff; stroke-width: 0.8; stroke-linecap: square"/>
    </g>
    <g id="text_4">
     <!-- 0.0 -->
     <g style="fill: #ffffff" transform="translate(599.385493 746.66923) scale(0.1 -0.1)">
      <use xlink:href="#DejaVuSans-30"/>
      <use xlink:href="#DejaVuSans-2e" transform="translate(63.623047 0)"/>
      <use xlink:href="#DejaVuSans-30" transform="translate(95.410156 0)"/>
     </g>
    </g>
   </g>
   <g id="xtick_5">
    <g id="line2d_6">
     <path d="M 538.362805 745.524913 
L 547.024237 748.982991 
" style="fill: none; stroke: #ffffff; stroke-width: 0.8; stroke-linecap: square"/>
    </g>
    <g id="text_5">
     <!-- 0.5 -->
     <g style="fill: #ffffff" transform="translate(542.99314 770.59744) scale(0.1 -0.1)">
      <use xlink:href="#DejaVuSans-30"/>
      <use xlink:href="#DejaVuSans-2e" transform="translate(63.623047 0)"/>
      <use xlink:href="#DejaVuSans-35" transform="translate(95.410156 0)"/>
     </g>
    </g>
   </g>
   <g id="xtick_6">
    <g id="line2d_7">
     <path d="M 480.46793 769.800662 
L 489.133496 773.347302 
" style="fill: none; stroke: #ffffff; stroke-width: 0.8; stroke-linecap: square"/>
    </g>
    <g id="text_6">
     <!-- 1.0 -->
     <g style="fill: #ffffff" transform="translate(485.164693 795.13501) scale(0.1 -0.1)">
      <use xlink:href="#DejaVuSans-31"/>
      <use xlink:href="#DejaVuSans-2e" transform="translate(63.623047 0)"/>
      <use xlink:href="#DejaVuSans-30" transform="translate(95.410156 0)"/>
     </g>
    </g>
   </g>
   <g id="xtick_7">
    <g id="line2d_8">
     <path d="M 421.082129 794.701568 
L 429.749165 798.340215 
" style="fill: none; stroke: #ffffff; stroke-width: 0.8; stroke-linecap: square"/>
    </g>
    <g id="text_7">
     <!-- 1.5 -->
     <g style="fill: #ffffff" transform="translate(425.844587 820.305515) scale(0.1 -0.1)">
      <use xlink:href="#DejaVuSans-31"/>
      <use xlink:href="#DejaVuSans-2e" transform="translate(63.623047 0)"/>
      <use xlink:href="#DejaVuSans-35" transform="translate(95.410156 0)"/>
     </g>
    </g>
   </g>
   <g id="text_8">
    <!-- X (Å) -->
    <g style="fill: #ffffff" transform="translate(611.562418 775.732051) rotate(-22.773932) scale(0.12 -0.12)">
     <defs>
      <path id="DejaVuSans-58" d="M 403 4666 
L 1081 4666 
L 2241 2931 
L 3406 4666 
L 4084 4666 
L 2584 2425 
L 4184 0 
L 3506 0 
L 2194 1984 
L 872 0 
L 191 0 
L 1856 2491 
L 403 4666 
z
" transform="scale(0.015625)"/>
      <path id="DejaVuSans-20" transform="scale(0.015625)"/>
      <path id="DejaVuSans-28" d="M 1984 4856 
Q 1566 4138 1362 3434 
Q 1159 2731 1159 2009 
Q 1159 1288 1364 580 
Q 1569 -128 1984 -844 
L 1484 -844 
Q 1016 -109 783 600 
Q 550 1309 550 2009 
Q 550 2706 781 3412 
Q 1013 4119 1484 4856 
L 1984 4856 
z
" transform="scale(0.015625)"/>
      <path id="DejaVuSans-c5" d="M 2663 5081 
Q 2663 5278 2523 5417 
Q 2384 5556 2188 5556 
Q 1988 5556 1852 5420 
Q 1716 5284 1716 5081 
Q 1716 4884 1853 4746 
Q 1991 4609 2188 4609 
Q 2384 4609 2523 4746 
Q 2663 4884 2663 5081 
z
M 2188 4044 
L 1338 1722 
L 3041 1722 
L 2188 4044 
z
M 1716 4366 
Q 1525 4494 1428 4673 
Q 1331 4853 1331 5081 
Q 1331 5441 1579 5691 
Q 1828 5941 2188 5941 
Q 2544 5941 2795 5689 
Q 3047 5438 3047 5081 
Q 3047 4863 2948 4678 
Q 2850 4494 2663 4366 
L 4325 0 
L 3669 0 
L 3244 1197 
L 1141 1197 
L 716 0 
L 50 0 
L 1716 4366 
z
" transform="scale(0.015625)"/>
      <path id="DejaVuSans-29" d="M 513 4856 
L 1013 4856 
Q 1481 4119 1714 3412 
Q 1947 2706 1947 2009 
Q 1947 1309 1714 600 
Q 1481 -109 1013 -844 
L 513 -844 
Q 928 -128 1133 580 
Q 1338 1288 1338 2009 
Q 1338 2731 1133 3434 
Q 928 4138 513 4856 
z
" transform="scale(0.015625)"/>
     </defs>
     <use xlink:href="#DejaVuSans-58"/>
     <use xlink:href="#DejaVuSans-20" transform="translate(68.505859 0)"/>
     <use xlink:href="#DejaVuSans-28" transform="translate(100.292969 0)"/>
     <use xlink:href="#DejaVuSans-c5" transform="translate(139.306641 0)"/>
     <use xlink:href="#DejaVuSans-29" transform="translate(207.714844 0)"/>
    </g>
   </g>
  </g>
  <g id="axis3d_2">
   <g id="line2d_9">
    <path d="M 88.962149 655.268958 
L 423.967568 795.91295 
" style="fill: none; stroke: #ffffff; stroke-width: 0.8; stroke-linecap: square"/>
   </g>
   <g id="xtick_8">
    <g id="line2d_10">
     <path d="M 91.832858 654.225144 
L 83.210833 657.360187 
" style="fill: none; stroke: #ffffff; stroke-width: 0.8; stroke-linecap: square"/>
    </g>
    <g id="text_9">
     <!-- −1.5 -->
     <g style="fill: #ffffff" transform="translate(67.380439 678.321911) scale(0.1 -0.1)">
      <use xlink:href="#DejaVuSans-2212"/>
      <use xlink:href="#DejaVuSans-31" transform="translate(83.789062 0)"/>
      <use xlink:href="#DejaVuSans-2e" transform="translate(147.412109 0)"/>
      <use xlink:href="#DejaVuSans-35" transform="translate(179.199219 0)"/>
     </g>
    </g>
   </g>
   <g id="xtick_9">
    <g id="line2d_11">
     <path d="M 144.292178 676.221724 
L 135.657212 679.433145 
" style="fill: none; stroke: #ffffff; stroke-width: 0.8; stroke-linecap: square"/>
    </g>
    <g id="text_10">
     <!-- −1.0 -->
     <g style="fill: #ffffff" transform="translate(119.771455 700.552288) scale(0.1 -0.1)">
      <use xlink:href="#DejaVuSans-2212"/>
      <use xlink:href="#DejaVuSans-31" transform="translate(83.789062 0)"/>
      <use xlink:href="#DejaVuSans-2e" transform="translate(147.412109 0)"/>
      <use xlink:href="#DejaVuSans-30" transform="translate(179.199219 0)"/>
     </g>
    </g>
   </g>
   <g id="xtick_10">
    <g id="line2d_12">
     <path d="M 198.036275 698.757021 
L 189.39032 702.047644 
" style="fill: none; stroke: #ffffff; stroke-width: 0.8; stroke-linecap: square"/>
    </g>
    <g id="text_11">
     <!-- −0.5 -->
     <g style="fill: #ffffff" transform="translate(173.447576 723.327957) scale(0.1 -0.1)">
      <use xlink:href="#DejaVuSans-2212"/>
      <use xlink:href="#DejaVuSans-30" transform="translate(83.789062 0)"/>
      <use xlink:href="#DejaVuSans-2e" transform="translate(147.412109 0)"/>
      <use xlink:href="#DejaVuSans-35" transform="translate(179.199219 0)"/>
     </g>
    </g>
   </g>
   <g id="xtick_11">
    <g id="line2d_13">
     <path d="M 253.112931 721.85107 
L 244.458097 725.223862 
" style="fill: none; stroke: #ffffff; stroke-width: 0.8; stroke-linecap: square"/>
    </g>
    <g id="text_12">
     <!-- 0.0 -->
     <g style="fill: #ffffff" transform="translate(232.646517 746.66923) scale(0.1 -0.1)">
      <use xlink:href="#DejaVuSans-30"/>
      <use xlink:href="#DejaVuSans-2e" transform="translate(63.623047 0)"/>
      <use xlink:href="#DejaVuSans-30" transform="translate(95.410156 0)"/>
     </g>
    </g>
   </g>
   <g id="xtick_12">
    <g id="line2d_14">
     <path d="M 309.57233 745.524913 
L 300.910898 748.982991 
" style="fill: none; stroke: #ffffff; stroke-width: 0.8; stroke-linecap: square"/>
    </g>
    <g id="text_13">
     <!-- 0.5 -->
     <g style="fill: #ffffff" transform="translate(289.03887 770.59744) scale(0.1 -0.1)">
      <use xlink:href="#DejaVuSans-30"/>
      <use xlink:href="#DejaVuSans-2e" transform="translate(63.623047 0)"/>
      <use xlink:href="#DejaVuSans-35" transform="translate(95.410156 0)"/>
     </g>
    </g>
   </g>
   <g id="xtick_13">
    <g id="line2d_15">
     <path d="M 367.467205 769.800662 
L 358.801639 773.347302 
" style="fill: none; stroke: #ffffff; stroke-width: 0.8; stroke-linecap: square"/>
    </g>
    <g id="text_14">
     <!-- 1.0 -->
     <g style="fill: #ffffff" transform="translate(346.867317 795.13501) scale(0.1 -0.1)">
      <use xlink:href="#DejaVuSans-31"/>
      <use xlink:href="#DejaVuSans-2e" transform="translate(63.623047 0)"/>
      <use xlink:href="#DejaVuSans-30" transform="translate(95.410156 0)"/>
     </g>
    </g>
   </g>
   <g id="xtick_14">
    <g id="line2d_16">
     <path d="M 426.853006 794.701568 
L 418.18597 798.340215 
" style="fill: none; stroke: #ffffff; stroke-width: 0.8; stroke-linecap: square"/>
    </g>
    <g id="text_15">
     <!-- 1.5 -->
     <g style="fill: #ffffff" transform="translate(406.187423 820.305515) scale(0.1 -0.1)">
      <use xlink:href="#DejaVuSans-31"/>
      <use xlink:href="#DejaVuSans-2e" transform="translate(63.623047 0)"/>
      <use xlink:href="#DejaVuSans-35" transform="translate(95.410156 0)"/>
     </g>
    </g>
   </g>
   <g id="text_16">
    <!-- Y (Å) -->
    <g style="fill: #ffffff" transform="translate(209.485185 764.443965) rotate(-337.226068) scale(0.12 -0.12)">
     <defs>
      <path id="DejaVuSans-59" d="M -13 4666 
L 666 4666 
L 1959 2747 
L 3244 4666 
L 3922 4666 
L 2272 2222 
L 2272 0 
L 1638 0 
L 1638 2222 
L -13 4666 
z
" transform="scale(0.015625)"/>
     </defs>
     <use xlink:href="#DejaVuSans-59"/>
     <use xlink:href="#DejaVuSans-20" transform="translate(61.083984 0)"/>
     <use xlink:href="#DejaVuSans-28" transform="translate(92.871094 0)"/>
     <use xlink:href="#DejaVuSans-c5" transform="translate(131.884766 0)"/>
     <use xlink:href="#DejaVuSans-29" transform="translate(200.292969 0)"/>
    </g>
   </g>
  </g>
  <g id="axis3d_3">
   <g id="line2d_17">
    <path d="M 88.962149 655.268958 
L 76.113874 201.534328 
" style="fill: none; stroke: #ffffff; stroke-width: 0.8; stroke-linecap: square"/>
   </g>
   <g id="xtick_15">
    <g id="line2d_18">
     <path d="M 91.832858 654.225144 
L 83.210833 657.360187 
" style="fill: none; stroke: #ffffff; stroke-width: 0.8; stroke-linecap: square"/>
    </g>
    <g id="text_17">
     <!-- −1.5 -->
     <g style="fill: #ffffff" transform="translate(58.59275 662.867396) scale(0.1 -0.1)">
      <use xlink:href="#DejaVuSans-2212"/>
      <use xlink:href="#DejaVuSans-31" transform="translate(83.789062 0)"/>
      <use xlink:href="#DejaVuSans-2e" transform="translate(147.412109 0)"/>
      <use xlink:href="#DejaVuSans-35" transform="translate(179.199219 0)"/>
     </g>
    </g>
   </g>
   <g id="xtick_16">
    <g id="line2d_19">
     <path d="M 89.776768 580.980614 
L 81.097708 584.008031 
" style="fill: none; stroke: #ffffff; stroke-width: 0.8; stroke-linecap: square"/>
    </g>
    <g id="text_18">
     <!-- −1.0 -->
     <g style="fill: #ffffff" transform="translate(56.404784 589.587025) scale(0.1 -0.1)">
      <use xlink:href="#DejaVuSans-2212"/>
      <use xlink:href="#DejaVuSans-31" transform="translate(83.789062 0)"/>
      <use xlink:href="#DejaVuSans-2e" transform="translate(147.412109 0)"/>
      <use xlink:href="#DejaVuSans-30" transform="translate(179.199219 0)"/>
     </g>
    </g>
   </g>
   <g id="xtick_17">
    <g id="line2d_20">
     <path d="M 87.695062 506.823591 
L 78.958212 509.740444 
" style="fill: none; stroke: #ffffff; stroke-width: 0.8; stroke-linecap: square"/>
    </g>
    <g id="text_19">
     <!-- −0.5 -->
     <g style="fill: #ffffff" transform="translate(54.189545 515.393183) scale(0.1 -0.1)">
      <use xlink:href="#DejaVuSans-2212"/>
      <use xlink:href="#DejaVuSans-30" transform="translate(83.789062 0)"/>
      <use xlink:href="#DejaVuSans-2e" transform="translate(147.412109 0)"/>
      <use xlink:href="#DejaVuSans-35" transform="translate(179.199219 0)"/>
     </g>
    </g>
   </g>
   <g id="xtick_18">
    <g id="line2d_21">
     <path d="M 85.58726 431.736915 
L 76.791847 434.540183 
" style="fill: none; stroke: #ffffff; stroke-width: 0.8; stroke-linecap: square"/>
    </g>
    <g id="text_20">
     <!-- 0.0 -->
     <g style="fill: #ffffff" transform="translate(56.136362 440.268682) scale(0.1 -0.1)">
      <use xlink:href="#DejaVuSans-30"/>
      <use xlink:href="#DejaVuSans-2e" transform="translate(63.623047 0)"/>
      <use xlink:href="#DejaVuSans-30" transform="translate(95.410156 0)"/>
     </g>
    </g>
   </g>
   <g id="xtick_19">
    <g id="line2d_22">
     <path d="M 83.452867 355.702995 
L 74.598104 358.389568 
" style="fill: none; stroke: #ffffff; stroke-width: 0.8; stroke-linecap: square"/>
    </g>
    <g id="text_21">
     <!-- 0.5 -->
     <g style="fill: #ffffff" transform="translate(53.865022 364.195902) scale(0.1 -0.1)">
      <use xlink:href="#DejaVuSans-30"/>
      <use xlink:href="#DejaVuSans-2e" transform="translate(63.623047 0)"/>
      <use xlink:href="#DejaVuSans-35" transform="translate(95.410156 0)"/>
     </g>
    </g>
   </g>
   <g id="xtick_20">
    <g id="line2d_23">
     <path d="M 81.291377 278.703791 
L 72.376461 281.270468 
" style="fill: none; stroke: #ffffff; stroke-width: 0.8; stroke-linecap: square"/>
    </g>
    <g id="text_22">
     <!-- 1.0 -->
     <g style="fill: #ffffff" transform="translate(51.564829 287.156774) scale(0.1 -0.1)">
      <use xlink:href="#DejaVuSans-31"/>
      <use xlink:href="#DejaVuSans-2e" transform="translate(63.623047 0)"/>
      <use xlink:href="#DejaVuSans-30" transform="translate(95.410156 0)"/>
     </g>
    </g>
   </g>
   <g id="xtick_21">
    <g id="line2d_24">
     <path d="M 79.10227 200.720804 
L 70.126382 203.164289 
" style="fill: none; stroke: #ffffff; stroke-width: 0.8; stroke-linecap: square"/>
    </g>
    <g id="text_23">
     <!-- 1.5 -->
     <g style="fill: #ffffff" transform="translate(49.235231 209.132765) scale(0.1 -0.1)">
      <use xlink:href="#DejaVuSans-31"/>
      <use xlink:href="#DejaVuSans-2e" transform="translate(63.623047 0)"/>
      <use xlink:href="#DejaVuSans-35" transform="translate(95.410156 0)"/>
     </g>
    </g>
   </g>
   <g id="text_24">
    <!-- Z (Å) -->
    <g style="fill: #ffffff" transform="translate(28.315263 417.98246) rotate(-271.621995) scale(0.12 -0.12)">
     <defs>
      <path id="DejaVuSans-5a" d="M 359 4666 
L 4025 4666 
L 4025 4184 
L 1075 531 
L 4097 531 
L 4097 0 
L 288 0 
L 288 481 
L 3238 4134 
L 359 4134 
L 359 4666 
z
" transform="scale(0.015625)"/>
     </defs>
     <use xlink:href="#DejaVuSans-5a"/>
     <use xlink:href="#DejaVuSans-20" transform="translate(68.505859 0)"/>
     <use xlink:href="#DejaVuSans-28" transform="translate(100.292969 0)"/>
     <use xlink:href="#DejaVuSans-c5" transform="translate(139.306641 0)"/>
     <use xlink:href="#DejaVuSans-29" transform="translate(207.714844 0)"/>
    </g>
   </g>
  </g>
  <g id="axes_1">
   <g id="line2d_25">
    <path d="M 423.967568 414.835066 
L 511.003045 534.575287 
" clip-path="url(#pd3850367f5)" style="fill: none; stroke-dasharray: 5.55,2.4; stroke-dashoffset: 0; stroke: #ffffff; stroke-opacity: 0.3; stroke-width: 1.5"/>
   </g>
   <g id="line2d_26">
    <path d="M 423.967568 414.835066 
L 340.060617 473.516533 
" clip-path="url(#pd3850367f5)" style="fill: none; stroke-dasharray: 5.55,2.4; stroke-dashoffset: 0; stroke: #ffffff; stroke-opacity: 0.3; stroke-width: 1.5"/>
   </g>
   <g id="Path3DCollection_1">
    <defs>
     <path id="m38906d99c5" d="M 0 3.535534 
C 0.937635 3.535534 1.836992 3.163008 2.5 2.5 
C 3.163008 1.836992 3.535534 0.937635 3.535534 0 
C 3.535534 -0.937635 3.163008 -1.836992 2.5 -2.5 
C 1.836992 -3.163008 0.937635 -3.535534 0 -3.535534 
C -0.937635 -3.535534 -1.836992 -3.163008 -2.5 -2.5 
C -3.163008 -1.836992 -3.535534 -0.937635 -3.535534 0 
C -3.535534 0.937635 -3.163008 1.836992 -2.5 2.5 
C -1.836992 3.163008 -0.937635 3.535534 0 3.535534 
z
" style="stroke: #ffffff; stroke-opacity: 0.6; stroke-width: 0.5"/>
    </defs>
    <g clip-path="url(#pd3850367f5)">
     <use xlink:href="#m38906d99c5" x="237.128602" y="581.835384" style="fill: #00ff00; fill-opacity: 0.6; stroke: #ffffff; stroke-opacity: 0.6; stroke-width: 0.5"/>
    </g>
   </g>
   <g id="text_25">
    <!-- Quantum Forces around H₂O Molecule -->
    <g style="fill: #ffffff" transform="translate(279.549375 17.837812) scale(0.14 -0.14)">
     <defs>
      <path id="DejaVuSans-51" d="M 2522 4238 
Q 1834 4238 1429 3725 
Q 1025 3213 1025 2328 
Q 1025 1447 1429 934 
Q 1834 422 2522 422 
Q 3209 422 3611 934 
Q 4013 1447 4013 2328 
Q 4013 3213 3611 3725 
Q 3209 4238 2522 4238 
z
M 3406 84 
L 4238 -825 
L 3475 -825 
L 2784 -78 
Q 2681 -84 2626 -87 
Q 2572 -91 2522 -91 
Q 1538 -91 948 567 
Q 359 1225 359 2328 
Q 359 3434 948 4092 
Q 1538 4750 2522 4750 
Q 3503 4750 4090 4092 
Q 4678 3434 4678 2328 
Q 4678 1516 4351 937 
Q 4025 359 3406 84 
z
" transform="scale(0.015625)"/>
      <path id="DejaVuSans-75" d="M 544 1381 
L 544 3500 
L 1119 3500 
L 1119 1403 
Q 1119 906 1312 657 
Q 1506 409 1894 409 
Q 2359 409 2629 706 
Q 2900 1003 2900 1516 
L 2900 3500 
L 3475 3500 
L 3475 0 
L 2900 0 
L 2900 538 
Q 2691 219 2414 64 
Q 2138 -91 1772 -91 
Q 1169 -91 856 284 
Q 544 659 544 1381 
z
M 1991 3584 
L 1991 3584 
z
" transform="scale(0.015625)"/>
      <path id="DejaVuSans-61" d="M 2194 1759 
Q 1497 1759 1228 1600 
Q 959 1441 959 1056 
Q 959 750 1161 570 
Q 1363 391 1709 391 
Q 2188 391 2477 730 
Q 2766 1069 2766 1631 
L 2766 1759 
L 2194 1759 
z
M 3341 1997 
L 3341 0 
L 2766 0 
L 2766 531 
Q 2569 213 2275 61 
Q 1981 -91 1556 -91 
Q 1019 -91 701 211 
Q 384 513 384 1019 
Q 384 1609 779 1909 
Q 1175 2209 1959 2209 
L 2766 2209 
L 2766 2266 
Q 2766 2663 2505 2880 
Q 2244 3097 1772 3097 
Q 1472 3097 1187 3025 
Q 903 2953 641 2809 
L 641 3341 
Q 956 3463 1253 3523 
Q 1550 3584 1831 3584 
Q 2591 3584 2966 3190 
Q 3341 2797 3341 1997 
z
" transform="scale(0.015625)"/>
      <path id="DejaVuSans-6e" d="M 3513 2113 
L 3513 0 
L 2938 0 
L 2938 2094 
Q 2938 2591 2744 2837 
Q 2550 3084 2163 3084 
Q 1697 3084 1428 2787 
Q 1159 2491 1159 1978 
L 1159 0 
L 581 0 
L 581 3500 
L 1159 3500 
L 1159 2956 
Q 1366 3272 1645 3428 
Q 1925 3584 2291 3584 
Q 2894 3584 3203 3211 
Q 3513 2838 3513 2113 
z
" transform="scale(0.015625)"/>
      <path id="DejaVuSans-74" d="M 1172 4494 
L 1172 3500 
L 2356 3500 
L 2356 3053 
L 1172 3053 
L 1172 1153 
Q 1172 725 1289 603 
Q 1406 481 1766 481 
L 2356 481 
L 2356 0 
L 1766 0 
Q 1100 0 847 248 
Q 594 497 594 1153 
L 594 3053 
L 172 3053 
L 172 3500 
L 594 3500 
L 594 4494 
L 1172 4494 
z
" transform="scale(0.015625)"/>
      <path id="DejaVuSans-6d" d="M 3328 2828 
Q 3544 3216 3844 3400 
Q 4144 3584 4550 3584 
Q 5097 3584 5394 3201 
Q 5691 2819 5691 2113 
L 5691 0 
L 5113 0 
L 5113 2094 
Q 5113 2597 4934 2840 
Q 4756 3084 4391 3084 
Q 3944 3084 3684 2787 
Q 3425 2491 3425 1978 
L 3425 0 
L 2847 0 
L 2847 2094 
Q 2847 2600 2669 2842 
Q 2491 3084 2119 3084 
Q 1678 3084 1418 2786 
Q 1159 2488 1159 1978 
L 1159 0 
L 581 0 
L 581 3500 
L 1159 3500 
L 1159 2956 
Q 1356 3278 1631 3431 
Q 1906 3584 2284 3584 
Q 2666 3584 2933 3390 
Q 3200 3197 3328 2828 
z
" transform="scale(0.015625)"/>
      <path id="DejaVuSans-46" d="M 628 4666 
L 3309 4666 
L 3309 4134 
L 1259 4134 
L 1259 2759 
L 3109 2759 
L 3109 2228 
L 1259 2228 
L 1259 0 
L 628 0 
L 628 4666 
z
" transform="scale(0.015625)"/>
      <path id="DejaVuSans-6f" d="M 1959 3097 
Q 1497 3097 1228 2736 
Q 959 2375 959 1747 
Q 959 1119 1226 758 
Q 1494 397 1959 397 
Q 2419 397 2687 759 
Q 2956 1122 2956 1747 
Q 2956 2369 2687 2733 
Q 2419 3097 1959 3097 
z
M 1959 3584 
Q 2709 3584 3137 3096 
Q 3566 2609 3566 1747 
Q 3566 888 3137 398 
Q 2709 -91 1959 -91 
Q 1206 -91 779 398 
Q 353 888 353 1747 
Q 353 2609 779 3096 
Q 1206 3584 1959 3584 
z
" transform="scale(0.015625)"/>
      <path id="DejaVuSans-72" d="M 2631 2963 
Q 2534 3019 2420 3045 
Q 2306 3072 2169 3072 
Q 1681 3072 1420 2755 
Q 1159 2438 1159 1844 
L 1159 0 
L 581 0 
L 581 3500 
L 1159 3500 
L 1159 2956 
Q 1341 3275 1631 3429 
Q 1922 3584 2338 3584 
Q 2397 3584 2469 3576 
Q 2541 3569 2628 3553 
L 2631 2963 
z
" transform="scale(0.015625)"/>
      <path id="DejaVuSans-63" d="M 3122 3366 
L 3122 2828 
Q 2878 2963 2633 3030 
Q 2388 3097 2138 3097 
Q 1578 3097 1268 2742 
Q 959 2388 959 1747 
Q 959 1106 1268 751 
Q 1578 397 2138 397 
Q 2388 397 2633 464 
Q 2878 531 3122 666 
L 3122 134 
Q 2881 22 2623 -34 
Q 2366 -91 2075 -91 
Q 1284 -91 818 406 
Q 353 903 353 1747 
Q 353 2603 823 3093 
Q 1294 3584 2113 3584 
Q 2378 3584 2631 3529 
Q 2884 3475 3122 3366 
z
" transform="scale(0.015625)"/>
      <path id="DejaVuSans-65" d="M 3597 1894 
L 3597 1613 
L 953 1613 
Q 991 1019 1311 708 
Q 1631 397 2203 397 
Q 2534 397 2845 478 
Q 3156 559 3463 722 
L 3463 178 
Q 3153 47 2828 -22 
Q 2503 -91 2169 -91 
Q 1331 -91 842 396 
Q 353 884 353 1716 
Q 353 2575 817 3079 
Q 1281 3584 2069 3584 
Q 2775 3584 3186 3129 
Q 3597 2675 3597 1894 
z
M 3022 2063 
Q 3016 2534 2758 2815 
Q 2500 3097 2075 3097 
Q 1594 3097 1305 2825 
Q 1016 2553 972 2059 
L 3022 2063 
z
" transform="scale(0.015625)"/>
      <path id="DejaVuSans-73" d="M 2834 3397 
L 2834 2853 
Q 2591 2978 2328 3040 
Q 2066 3103 1784 3103 
Q 1356 3103 1142 2972 
Q 928 2841 928 2578 
Q 928 2378 1081 2264 
Q 1234 2150 1697 2047 
L 1894 2003 
Q 2506 1872 2764 1633 
Q 3022 1394 3022 966 
Q 3022 478 2636 193 
Q 2250 -91 1575 -91 
Q 1294 -91 989 -36 
Q 684 19 347 128 
L 347 722 
Q 666 556 975 473 
Q 1284 391 1588 391 
Q 1994 391 2212 530 
Q 2431 669 2431 922 
Q 2431 1156 2273 1281 
Q 2116 1406 1581 1522 
L 1381 1569 
Q 847 1681 609 1914 
Q 372 2147 372 2553 
Q 372 3047 722 3315 
Q 1072 3584 1716 3584 
Q 2034 3584 2315 3537 
Q 2597 3491 2834 3397 
z
" transform="scale(0.015625)"/>
      <path id="DejaVuSans-64" d="M 2906 2969 
L 2906 4863 
L 3481 4863 
L 3481 0 
L 2906 0 
L 2906 525 
Q 2725 213 2448 61 
Q 2172 -91 1784 -91 
Q 1150 -91 751 415 
Q 353 922 353 1747 
Q 353 2572 751 3078 
Q 1150 3584 1784 3584 
Q 2172 3584 2448 3432 
Q 2725 3281 2906 2969 
z
M 947 1747 
Q 947 1113 1208 752 
Q 1469 391 1925 391 
Q 2381 391 2643 752 
Q 2906 1113 2906 1747 
Q 2906 2381 2643 2742 
Q 2381 3103 1925 3103 
Q 1469 3103 1208 2742 
Q 947 2381 947 1747 
z
" transform="scale(0.015625)"/>
      <path id="DejaVuSans-48" d="M 628 4666 
L 1259 4666 
L 1259 2753 
L 3553 2753 
L 3553 4666 
L 4184 4666 
L 4184 0 
L 3553 0 
L 3553 2222 
L 1259 2222 
L 1259 0 
L 628 0 
L 628 4666 
z
" transform="scale(0.015625)"/>
      <path id="DejaVuSans-2082" d="M 838 332 
L 2163 332 
L 2163 -24 
L 294 -24 
L 294 319 
Q 400 416 597 591 
Q 1672 1544 1672 1838 
Q 1672 2044 1509 2170 
Q 1347 2297 1081 2297 
Q 919 2297 728 2242 
Q 538 2188 313 2079 
L 313 2463 
Q 553 2551 761 2594 
Q 969 2638 1147 2638 
Q 1600 2638 1872 2432 
Q 2144 2226 2144 1888 
Q 2144 1454 1109 566 
Q 934 416 838 332 
z
" transform="scale(0.015625)"/>
      <path id="DejaVuSans-4f" d="M 2522 4238 
Q 1834 4238 1429 3725 
Q 1025 3213 1025 2328 
Q 1025 1447 1429 934 
Q 1834 422 2522 422 
Q 3209 422 3611 934 
Q 4013 1447 4013 2328 
Q 4013 3213 3611 3725 
Q 3209 4238 2522 4238 
z
M 2522 4750 
Q 3503 4750 4090 4092 
Q 4678 3434 4678 2328 
Q 4678 1225 4090 567 
Q 3503 -91 2522 -91 
Q 1538 -91 948 565 
Q 359 1222 359 2328 
Q 359 3434 948 4092 
Q 1538 4750 2522 4750 
z
" transform="scale(0.015625)"/>
      <path id="DejaVuSans-4d" d="M 628 4666 
L 1569 4666 
L 2759 1491 
L 3956 4666 
L 4897 4666 
L 4897 0 
L 4281 0 
L 4281 4097 
L 3078 897 
L 2444 897 
L 1241 4097 
L 1241 0 
L 628 0 
L 628 4666 
z
" transform="scale(0.015625)"/>
      <path id="DejaVuSans-6c" d="M 603 4863 
L 1178 4863 
L 1178 0 
L 603 0 
L 603 4863 
z
" transform="scale(0.015625)"/>
     </defs>
     <use xlink:href="#DejaVuSans-51"/>
     <use xlink:href="#DejaVuSans-75" transform="translate(78.710938 0)"/>
     <use xlink:href="#DejaVuSans-61" transform="translate(142.089844 0)"/>
     <use xlink:href="#DejaVuSans-6e" transform="translate(203.369141 0)"/>
     <use xlink:href="#DejaVuSans-74" transform="translate(266.748047 0)"/>
     <use xlink:href="#DejaVuSans-75" transform="translate(305.957031 0)"/>
     <use xlink:href="#DejaVuSans-6d" transform="translate(369.335938 0)"/>
     <use xlink:href="#DejaVuSans-20" transform="translate(466.748047 0)"/>
     <use xlink:href="#DejaVuSans-46" transform="translate(498.535156 0)"/>
     <use xlink:href="#DejaVuSans-6f" transform="translate(552.429688 0)"/>
     <use xlink:href="#DejaVuSans-72" transform="translate(613.611328 0)"/>
     <use xlink:href="#DejaVuSans-63" transform="translate(652.474609 0)"/>
     <use xlink:href="#DejaVuSans-65" transform="translate(707.455078 0)"/>
     <use xlink:href="#DejaVuSans-73" transform="translate(768.978516 0)"/>
     <use xlink:href="#DejaVuSans-20" transform="translate(821.078125 0)"/>
     <use xlink:href="#DejaVuSans-61" transform="translate(852.865234 0)"/>
     <use xlink:href="#DejaVuSans-72" transform="translate(914.144531 0)"/>
     <use xlink:href="#DejaVuSans-6f" transform="translate(953.007812 0)"/>
     <use xlink:href="#DejaVuSans-75" transform="translate(1014.189453 0)"/>
     <use xlink:href="#DejaVuSans-6e" transform="translate(1077.568359 0)"/>
     <use xlink:href="#DejaVuSans-64" transform="translate(1140.947266 0)"/>
     <use xlink:href="#DejaVuSans-20" transform="translate(1204.423828 0)"/>
     <use xlink:href="#DejaVuSans-48" transform="translate(1236.210938 0)"/>
     <use xlink:href="#DejaVuSans-2082" transform="translate(1311.40625 0)"/>
     <use xlink:href="#DejaVuSans-4f" transform="translate(1351.494141 0)"/>
     <use xlink:href="#DejaVuSans-20" transform="translate(1430.205078 0)"/>
     <use xlink:href="#DejaVuSans-4d" transform="translate(1461.992188 0)"/>
     <use xlink:href="#DejaVuSans-6f" transform="translate(1548.271484 0)"/>
     <use xlink:href="#DejaVuSans-6c" transform="translate(1609.453125 0)"/>
     <use xlink:href="#DejaVuSans-65" transform="translate(1637.236328 0)"/>
     <use xlink:href="#DejaVuSans-63" transform="translate(1698.759766 0)"/>
     <use xlink:href="#DejaVuSans-75" transform="translate(1753.740234 0)"/>
     <use xlink:href="#DejaVuSans-6c" transform="translate(1817.119141 0)"/>
     <use xlink:href="#DejaVuSans-65" transform="translate(1844.902344 0)"/>
    </g>
   </g>
   <g id="Path3DCollection_2">
    <g clip-path="url(#pd3850367f5)">
     <use xlink:href="#m38906d99c5" x="235.539992" y="534.007681" style="fill: #00ff00; fill-opacity: 0.6; stroke: #ffffff; stroke-opacity: 0.6; stroke-width: 0.5"/>
    </g>
   </g>
   <g id="Line3DCollection_4">
    <path d="M 255.915053 543.257426 
L 237.128602 581.835384 
" clip-path="url(#pd3850367f5)" style="fill: none; stroke: #ff00ff; stroke-opacity: 0.4; stroke-width: 1.5"/>
    <path d="M 255.915053 543.257426 
L 253.717336 555.906701 
" clip-path="url(#pd3850367f5)" style="fill: none; stroke: #ff00ff; stroke-opacity: 0.4; stroke-width: 1.5"/>
    <path d="M 255.915053 543.257426 
L 247.198065 553.019963 
" clip-path="url(#pd3850367f5)" style="fill: none; stroke: #ff00ff; stroke-opacity: 0.4; stroke-width: 1.5"/>
   </g>
   <g id="legend_1">
    <g id="patch_6">
     <path d="M 762.55375 82.665312 
L 810.4 82.665312 
Q 812.8 82.665312 812.8 80.265312 
L 812.8 46.237812 
Q 812.8 43.837812 810.4 43.837812 
L 762.55375 43.837812 
Q 760.15375 43.837812 760.15375 46.237812 
L 760.15375 80.265312 
Q 760.15375 82.665312 762.55375 82.665312 
z
" style="opacity: 0.8; stroke: #ffffff; stroke-linejoin: miter"/>
    </g>
    <g id="Path3DCollection_3">
     <defs>
      <path id="m3779350edb" d="M 0 7.071068 
C 1.875269 7.071068 3.673985 6.326016 5 5 
C 6.326016 3.673985 7.071068 1.875269 7.071068 0 
C 7.071068 -1.875269 6.326016 -3.673985 5 -5 
C 3.673985 -6.326016 1.875269 -7.071068 0 -7.071068 
C -1.875269 -7.071068 -3.673985 -6.326016 -5 -5 
C -6.326016 -3.673985 -7.071068 -1.875269 -7.071068 0 
C -7.071068 1.875269 -6.326016 3.673985 -5 5 
C -3.673985 6.326016 -1.875269 7.071068 0 7.071068 
z
" style="stroke: #ffffff; stroke-opacity: 0.8"/>
     </defs>
     <g>
      <use xlink:href="#m3779350edb" x="776.95375" y="54.605937" style="fill: #ff0000; fill-opacity: 0.8; stroke: #ffffff; stroke-opacity: 0.8"/>
     </g>
    </g>
    <g id="text_26">
     <!-- O -->
     <g style="fill: #ffffff" transform="translate(798.55375 57.755937) scale(0.12 -0.12)">
      <use xlink:href="#DejaVuSans-4f"/>
     </g>
    </g>
    <g id="Path3DCollection_4">
     <defs>
      <path id="m61fce502e4" d="M 0 5 
C 1.326016 5 2.597899 4.473168 3.535534 3.535534 
C 4.473168 2.597899 5 1.326016 5 0 
C 5 -1.326016 4.473168 -2.597899 3.535534 -3.535534 
C 2.597899 -4.473168 1.326016 -5 0 -5 
C -1.326016 -5 -2.597899 -4.473168 -3.535534 -3.535534 
C -4.473168 -2.597899 -5 -1.326016 -5 0 
C -5 1.326016 -4.473168 2.597899 -3.535534 3.535534 
C -2.597899 4.473168 -1.326016 5 0 5 
z
" style="stroke: #ffffff; stroke-opacity: 0.6"/>
     </defs>
     <g>
      <use xlink:href="#m61fce502e4" x="776.95375" y="72.219687" style="fill: #00ffff; fill-opacity: 0.6; stroke: #ffffff; stroke-opacity: 0.6"/>
     </g>
    </g>
    <g id="text_27">
     <!-- H -->
     <g style="fill: #ffffff" transform="translate(798.55375 75.369687) scale(0.12 -0.12)">
      <use xlink:href="#DejaVuSans-48"/>
     </g>
    </g>
   </g>
   <g id="Line3DCollection_5">
    <path d="M 257.138224 561.588271 
L 235.539992 534.007681 
" clip-path="url(#pd3850367f5)" style="fill: none; stroke: #ff00ff; stroke-opacity: 0.4; stroke-width: 1.5"/>
    <path d="M 257.138224 561.588271 
L 250.327333 556.357427 
" clip-path="url(#pd3850367f5)" style="fill: none; stroke: #ff00ff; stroke-opacity: 0.4; stroke-width: 1.5"/>
    <path d="M 257.138224 561.588271 
L 251.371367 550.754225 
" clip-path="url(#pd3850367f5)" style="fill: none; stroke: #ff00ff; stroke-opacity: 0.4; stroke-width: 1.5"/>
   </g>
   <g id="Path3DCollection_5">
    <g clip-path="url(#pd3850367f5)">
     <use xlink:href="#m38906d99c5" x="379.429879" y="190.556866" style="fill: #00ff00; fill-opacity: 0.6; stroke: #ffffff; stroke-opacity: 0.6; stroke-width: 0.5"/>
    </g>
   </g>
   <g id="Line3DCollection_6">
    <path d="M 412.97473 157.946208 
L 379.429879 190.556866 
" clip-path="url(#pd3850367f5)" style="fill: none; stroke: #ff00ff; stroke-opacity: 0.4; stroke-width: 1.5"/>
    <path d="M 412.97473 157.946208 
L 405.69769 169.819237 
" clip-path="url(#pd3850367f5)" style="fill: none; stroke: #ff00ff; stroke-opacity: 0.4; stroke-width: 1.5"/>
    <path d="M 412.97473 157.946208 
L 400.793614 164.986495 
" clip-path="url(#pd3850367f5)" style="fill: none; stroke: #ff00ff; stroke-opacity: 0.4; stroke-width: 1.5"/>
   </g>
   <g id="Path3DCollection_6">
    <g clip-path="url(#pd3850367f5)">
     <use xlink:href="#m38906d99c5" x="384.060649" y="347.962939" style="fill: #00ff00; fill-opacity: 0.6; stroke: #ffffff; stroke-opacity: 0.6; stroke-width: 0.5"/>
    </g>
   </g>
   <g id="Line3DCollection_7">
    <path d="M 392.280916 382.168213 
L 384.060649 347.962939 
" clip-path="url(#pd3850367f5)" style="fill: none; stroke: #ff00ff; stroke-opacity: 0.4; stroke-width: 1.5"/>
    <path d="M 392.280916 382.168213 
L 388.563178 374.742467 
" clip-path="url(#pd3850367f5)" style="fill: none; stroke: #ff00ff; stroke-opacity: 0.4; stroke-width: 1.5"/>
    <path d="M 392.280916 382.168213 
L 391.257371 369.873505 
" clip-path="url(#pd3850367f5)" style="fill: none; stroke: #ff00ff; stroke-opacity: 0.4; stroke-width: 1.5"/>
   </g>
   <g id="Path3DCollection_7">
    <g clip-path="url(#pd3850367f5)">
     <use xlink:href="#m38906d99c5" x="407.467099" y="594.805979" style="fill: #00ff00; fill-opacity: 0.6; stroke: #ffffff; stroke-opacity: 0.6; stroke-width: 0.5"/>
    </g>
   </g>
   <g id="Line3DCollection_8">
    <path d="M 371.968547 563.85816 
L 407.467099 594.805979 
" clip-path="url(#pd3850367f5)" style="fill: none; stroke: #ff00ff; stroke-opacity: 0.4; stroke-width: 1.5"/>
    <path d="M 371.968547 563.85816 
L 380.005891 575.259415 
" clip-path="url(#pd3850367f5)" style="fill: none; stroke: #ff00ff; stroke-opacity: 0.4; stroke-width: 1.5"/>
    <path d="M 371.968547 563.85816 
L 384.514264 570.398384 
" clip-path="url(#pd3850367f5)" style="fill: none; stroke: #ff00ff; stroke-opacity: 0.4; stroke-width: 1.5"/>
   </g>
   <g id="Path3DCollection_8">
    <g clip-path="url(#pd3850367f5)">
     <use xlink:href="#m38906d99c5" x="482.441103" y="555.927964" style="fill: #00ff00; fill-opacity: 0.6; stroke: #ffffff; stroke-opacity: 0.6; stroke-width: 0.5"/>
    </g>
   </g>
   <g id="Line3DCollection_9">
    <path d="M 502.343714 514.122204 
L 482.441103 555.927964 
" clip-path="url(#pd3850367f5)" style="fill: none; stroke: #ff00ff; stroke-opacity: 0.4; stroke-width: 1.5"/>
    <path d="M 502.343714 514.122204 
L 499.735732 527.415514 
" clip-path="url(#pd3850367f5)" style="fill: none; stroke: #ff00ff; stroke-opacity: 0.4; stroke-width: 1.5"/>
    <path d="M 502.343714 514.122204 
L 493.397516 525.093682 
" clip-path="url(#pd3850367f5)" style="fill: none; stroke: #ff00ff; stroke-opacity: 0.4; stroke-width: 1.5"/>
   </g>
   <g id="Path3DCollection_9">
    <g clip-path="url(#pd3850367f5)">
     <use xlink:href="#m38906d99c5" x="450.20677" y="597.211666" style="fill: #00ff00; fill-opacity: 0.6; stroke: #ffffff; stroke-opacity: 0.6; stroke-width: 0.5"/>
    </g>
   </g>
   <g id="Line3DCollection_10">
    <path d="M 556.444795 563.767531 
L 592.266841 570.690832 
" clip-path="url(#pd3850367f5)" style="fill: none; stroke: #ff00ff; stroke-opacity: 0.4; stroke-width: 1.5"/>
    <path d="M 556.444795 563.767531 
L 567.037325 569.250399 
" clip-path="url(#pd3850367f5)" style="fill: none; stroke: #ff00ff; stroke-opacity: 0.4; stroke-width: 1.5"/>
    <path d="M 556.444795 563.767531 
L 566.507164 562.275066 
" clip-path="url(#pd3850367f5)" style="fill: none; stroke: #ff00ff; stroke-opacity: 0.4; stroke-width: 1.5"/>
   </g>
   <g id="Path3DCollection_10">
    <g clip-path="url(#pd3850367f5)">
     <use xlink:href="#m38906d99c5" x="592.266841" y="570.690832" style="fill: #00ff00; fill-opacity: 0.6; stroke: #ffffff; stroke-opacity: 0.6; stroke-width: 0.5"/>
    </g>
   </g>
   <g id="Line3DCollection_11">
    <path d="M 484.409699 593.335664 
L 450.20677 597.211666 
" clip-path="url(#pd3850367f5)" style="fill: none; stroke: #ff00ff; stroke-opacity: 0.4; stroke-width: 1.5"/>
    <path d="M 484.409699 593.335664 
L 475.387296 598.00456 
" clip-path="url(#pd3850367f5)" style="fill: none; stroke: #ff00ff; stroke-opacity: 0.4; stroke-width: 1.5"/>
    <path d="M 484.409699 593.335664 
L 473.503101 590.924495 
" clip-path="url(#pd3850367f5)" style="fill: none; stroke: #ff00ff; stroke-opacity: 0.4; stroke-width: 1.5"/>
   </g>
   <g id="Path3DCollection_11">
    <g clip-path="url(#pd3850367f5)">
     <use xlink:href="#m38906d99c5" x="335.750727" y="460.743992" style="fill: #00ff00; fill-opacity: 0.6; stroke: #ffffff; stroke-opacity: 0.6; stroke-width: 0.5"/>
    </g>
   </g>
   <g id="Line3DCollection_12">
    <path d="M 353.490948 505.236328 
L 335.750727 460.743992 
" clip-path="url(#pd3850367f5)" style="fill: none; stroke: #ff00ff; stroke-opacity: 0.4; stroke-width: 1.5"/>
    <path d="M 353.490948 505.236328 
L 346.086714 493.340613 
" clip-path="url(#pd3850367f5)" style="fill: none; stroke: #ff00ff; stroke-opacity: 0.4; stroke-width: 1.5"/>
    <path d="M 353.490948 505.236328 
L 350.61342 491.337162 
" clip-path="url(#pd3850367f5)" style="fill: none; stroke: #ff00ff; stroke-opacity: 0.4; stroke-width: 1.5"/>
   </g>
   <g id="Path3DCollection_12">
    <g clip-path="url(#pd3850367f5)">
     <use xlink:href="#m38906d99c5" x="332.693597" y="491.281832" style="fill: #00ff00; fill-opacity: 0.6; stroke: #ffffff; stroke-opacity: 0.6; stroke-width: 0.5"/>
    </g>
   </g>
   <g id="Path3DCollection_13">
    <g clip-path="url(#pd3850367f5)">
     <use xlink:href="#m3779350edb" x="423.967568" y="414.835066" style="fill: #ff0000; fill-opacity: 0.8; stroke: #ffffff; stroke-opacity: 0.8"/>
    </g>
   </g>
   <g id="Line3DCollection_13">
    <path d="M 329.957288 529.393382 
L 332.693597 491.281832 
" clip-path="url(#pd3850367f5)" style="fill: none; stroke: #ff00ff; stroke-opacity: 0.4; stroke-width: 1.5"/>
    <path d="M 329.957288 529.393382 
L 330.914574 520.593593 
" clip-path="url(#pd3850367f5)" style="fill: none; stroke: #ff00ff; stroke-opacity: 0.4; stroke-width: 1.5"/>
    <path d="M 329.957288 529.393382 
L 330.593408 515.994032 
" clip-path="url(#pd3850367f5)" style="fill: none; stroke: #ff00ff; stroke-opacity: 0.4; stroke-width: 1.5"/>
   </g>
   <g id="Path3DCollection_14">
    <defs>
     <path id="C0_0_b25fb82559" d="M 0 5 
C 1.326016 5 2.597899 4.473168 3.535534 3.535534 
C 4.473168 2.597899 5 1.326016 5 -0 
C 5 -1.326016 4.473168 -2.597899 3.535534 -3.535534 
C 2.597899 -4.473168 1.326016 -5 0 -5 
C -1.326016 -5 -2.597899 -4.473168 -3.535534 -3.535534 
C -4.473168 -2.597899 -5 -1.326016 -5 0 
C -5 1.326016 -4.473168 2.597899 -3.535534 3.535534 
C -2.597899 4.473168 -1.326016 5 0 5 
z
"/>
    </defs>
    <g clip-path="url(#pd3850367f5)">
     <use xlink:href="#C0_0_b25fb82559" x="340.060617" y="473.516533" style="fill: #00ffff; fill-opacity: 0.6; stroke: #ffffff; stroke-opacity: 0.6"/>
    </g>
    <g clip-path="url(#pd3850367f5)">
     <use xlink:href="#C0_0_b25fb82559" x="511.003045" y="534.575287" style="fill: #00ffff; fill-opacity: 0.6; stroke: #ffffff; stroke-opacity: 0.6"/>
    </g>
   </g>
   <g id="Path3DCollection_15">
    <g clip-path="url(#pd3850367f5)">
     <use xlink:href="#m38906d99c5" x="365.384446" y="364.570074" style="fill: #00ff00; fill-opacity: 0.6; stroke: #ffffff; stroke-opacity: 0.6; stroke-width: 0.5"/>
    </g>
   </g>
   <g id="Line3DCollection_14">
    <path d="M 372.161268 318.933878 
L 365.384446 364.570074 
" clip-path="url(#pd3850367f5)" style="fill: none; stroke: #ff00ff; stroke-opacity: 0.4; stroke-width: 1.5"/>
    <path d="M 372.161268 318.933878 
L 370.876977 333.459675 
" clip-path="url(#pd3850367f5)" style="fill: none; stroke: #ff00ff; stroke-opacity: 0.4; stroke-width: 1.5"/>
    <path d="M 372.161268 318.933878 
L 369.526585 330.789643 
" clip-path="url(#pd3850367f5)" style="fill: none; stroke: #ff00ff; stroke-opacity: 0.4; stroke-width: 1.5"/>
   </g>
   <g id="Line3DCollection_15">
    <path d="M 482.080714 397.490339 
L 474.265792 441.229512 
" clip-path="url(#pd3850367f5)" style="fill: none; stroke: #ff00ff; stroke-opacity: 0.4; stroke-width: 1.5"/>
    <path d="M 482.080714 397.490339 
L 480.382854 411.83945 
" clip-path="url(#pd3850367f5)" style="fill: none; stroke: #ff00ff; stroke-opacity: 0.4; stroke-width: 1.5"/>
    <path d="M 482.080714 397.490339 
L 479.263734 408.402819 
" clip-path="url(#pd3850367f5)" style="fill: none; stroke: #ff00ff; stroke-opacity: 0.4; stroke-width: 1.5"/>
   </g>
   <g id="Path3DCollection_16">
    <g clip-path="url(#pd3850367f5)">
     <use xlink:href="#m38906d99c5" x="474.265792" y="441.229512" style="fill: #00ff00; fill-opacity: 0.6; stroke: #ffffff; stroke-opacity: 0.6; stroke-width: 0.5"/>
    </g>
   </g>
   <g id="Path3DCollection_17">
    <g clip-path="url(#pd3850367f5)">
     <use xlink:href="#m38906d99c5" x="260.30864" y="502.706766" style="fill: #00ff00; fill-opacity: 0.6; stroke: #ffffff; stroke-opacity: 0.6; stroke-width: 0.5"/>
    </g>
   </g>
   <g id="Line3DCollection_16">
    <path d="M 221.038569 484.907506 
L 260.30864 502.706766 
" clip-path="url(#pd3850367f5)" style="fill: none; stroke: #ff00ff; stroke-opacity: 0.4; stroke-width: 1.5"/>
    <path d="M 221.038569 484.907506 
L 231.886039 493.427925 
" clip-path="url(#pd3850367f5)" style="fill: none; stroke: #ff00ff; stroke-opacity: 0.4; stroke-width: 1.5"/>
    <path d="M 221.038569 484.907506 
L 232.867964 486.662736 
" clip-path="url(#pd3850367f5)" style="fill: none; stroke: #ff00ff; stroke-opacity: 0.4; stroke-width: 1.5"/>
   </g>
   <g id="Path3DCollection_18">
    <g clip-path="url(#pd3850367f5)">
     <use xlink:href="#m38906d99c5" x="652.868264" y="474.239903" style="fill: #00ff00; fill-opacity: 0.6; stroke: #ffffff; stroke-opacity: 0.6; stroke-width: 0.5"/>
    </g>
   </g>
   <g id="Line3DCollection_17">
    <path d="M 624.916257 502.877857 
L 652.868264 474.239903 
" clip-path="url(#pd3850367f5)" style="fill: none; stroke: #ff00ff; stroke-opacity: 0.4; stroke-width: 1.5"/>
    <path d="M 624.916257 502.877857 
L 633.773384 497.569042 
" clip-path="url(#pd3850367f5)" style="fill: none; stroke: #ff00ff; stroke-opacity: 0.4; stroke-width: 1.5"/>
    <path d="M 624.916257 502.877857 
L 632.33254 491.51013 
" clip-path="url(#pd3850367f5)" style="fill: none; stroke: #ff00ff; stroke-opacity: 0.4; stroke-width: 1.5"/>
   </g>
   <g id="Path3DCollection_19">
    <g clip-path="url(#pd3850367f5)">
     <use xlink:href="#m38906d99c5" x="346.921259" y="568.059911" style="fill: #00ff00; fill-opacity: 0.6; stroke: #ffffff; stroke-opacity: 0.6; stroke-width: 0.5"/>
    </g>
   </g>
   <g id="Line3DCollection_18">
    <path d="M 336.932949 525.257511 
L 346.921259 568.059911 
" clip-path="url(#pd3850367f5)" style="fill: none; stroke: #ff00ff; stroke-opacity: 0.4; stroke-width: 1.5"/>
    <path d="M 336.932949 525.257511 
L 339.240796 539.615145 
" clip-path="url(#pd3850367f5)" style="fill: none; stroke: #ff00ff; stroke-opacity: 0.4; stroke-width: 1.5"/>
    <path d="M 336.932949 525.257511 
L 340.391176 535.602368 
" clip-path="url(#pd3850367f5)" style="fill: none; stroke: #ff00ff; stroke-opacity: 0.4; stroke-width: 1.5"/>
   </g>
  </g>
 </g>
 <defs>
  <clipPath id="pd3850367f5">
   <rect x="7.2" y="37.837812" width="811.6" height="811.6"/>
  </clipPath>
 </defs>
</svg>
