<?xml version="1.0" encoding="utf-8" standalone="no"?>
<!DOCTYPE svg PUBLIC "-//W3C//DTD SVG 1.1//EN"
  "http://www.w3.org/Graphics/SVG/1.1/DTD/svg11.dtd">
<svg xmlns:xlink="http://www.w3.org/1999/xlink" width="541.242594pt" height="568.637812pt" viewBox="0 0 541.242594 568.637812" xmlns="http://www.w3.org/2000/svg" version="1.1">
 <metadata>
  <rdf:RDF xmlns:dc="http://purl.org/dc/elements/1.1/" xmlns:cc="http://creativecommons.org/ns#" xmlns:rdf="http://www.w3.org/1999/02/22-rdf-syntax-ns#">
   <cc:Work>
    <dc:type rdf:resource="http://purl.org/dc/dcmitype/StillImage"/>
    <dc:date>2025-02-24T03:12:14.851456</dc:date>
    <dc:format>image/svg+xml</dc:format>
    <dc:creator>
     <cc:Agent>
      <dc:title>Matplotlib v3.10.0, https://matplotlib.org/</dc:title>
     </cc:Agent>
    </dc:creator>
   </cc:Work>
  </rdf:RDF>
 </metadata>
 <defs>
  <style type="text/css">*{stroke-linejoin: round; stroke-linecap: butt}</style>
 </defs>
 <g id="figure_1">
  <g id="patch_1">
   <path d="M 0 568.637812 
L 541.242594 568.637812 
L 541.242594 0 
L 0 0 
z
"/>
  </g>
  <g id="patch_2">
   <path d="M 10.442594 561.437812 
L 534.042594 561.437812 
L 534.042594 37.837812 
L 10.442594 37.837812 
z
"/>
  </g>
  <g id="pane3d_1">
   <g id="patch_3">
    <path d="M 350.685058 314.176683 
L 504.06953 366.498252 
L 509.975856 164.089999 
L 352.469433 120.292138 
" style="fill: none; opacity: 0.5; stroke: #f2f2f2; stroke-linejoin: miter"/>
   </g>
  </g>
  <g id="pane3d_2">
   <g id="patch_4">
    <path d="M 350.685058 314.176683 
L 42.800931 424.298053 
L 36.250996 212.600627 
L 352.469433 120.292138 
" style="fill: none; opacity: 0.5; stroke: #e6e6e6; stroke-linejoin: miter"/>
   </g>
  </g>
  <g id="pane3d_3">
   <g id="patch_5">
    <path d="M 350.685058 314.176683 
L 42.800931 424.298053 
L 196.123796 488.483997 
L 504.06953 366.498252 
" style="fill: none; opacity: 0.5; stroke: #ececec; stroke-linejoin: miter"/>
   </g>
  </g>
  <g id="grid3d_1">
   <g id="Line3DCollection_1">
    <path d="M 504.06953 366.498252 
L 350.685058 314.176683 
L 352.469433 120.292138 
" style="fill: none; stroke: #ffffff; stroke-width: 0.8"/>
    <path d="M 468.969644 380.402279 
L 315.429489 326.786594 
L 316.343472 130.8378 
" style="fill: none; stroke: #ffffff; stroke-width: 0.8"/>
    <path d="M 432.974426 394.660971 
L 279.31827 339.702547 
L 279.31827 141.645963 
" style="fill: none; stroke: #ffffff; stroke-width: 0.8"/>
    <path d="M 396.049178 409.288074 
L 242.319869 352.93582 
L 241.359827 152.726552 
" style="fill: none; stroke: #ffffff; stroke-width: 0.8"/>
    <path d="M 358.157383 424.298053 
L 204.401183 366.498252 
L 202.432408 164.089999 
" style="fill: none; stroke: #ffffff; stroke-width: 0.8"/>
    <path d="M 319.260587 439.706139 
L 165.527446 380.402279 
L 162.498431 175.747273 
" style="fill: none; stroke: #ffffff; stroke-width: 0.8"/>
    <path d="M 279.31827 455.528386 
L 125.662114 394.660971 
L 121.518345 187.709921 
" style="fill: none; stroke: #ffffff; stroke-width: 0.8"/>
    <path d="M 238.287703 471.781718 
L 84.766756 409.288074 
L 79.450497 199.990102 
" style="fill: none; stroke: #ffffff; stroke-width: 0.8"/>
    <path d="M 196.123796 488.483997 
L 42.800931 424.298053 
L 36.250996 212.600627 
" style="fill: none; stroke: #ffffff; stroke-width: 0.8"/>
   </g>
  </g>
  <g id="grid3d_2">
   <g id="Line3DCollection_2">
    <path d="M 352.469433 120.292138 
L 350.685058 314.176683 
L 42.800931 424.298053 
" style="fill: none; stroke: #ffffff; stroke-width: 0.8"/>
    <path d="M 377.649218 127.293889 
L 375.231537 322.549827 
L 67.230111 434.524903 
" style="fill: none; stroke: #ffffff; stroke-width: 0.8"/>
    <path d="M 403.243412 134.410874 
L 400.17199 331.057362 
L 92.093164 444.933387 
" style="fill: none; stroke: #ffffff; stroke-width: 0.8"/>
    <path d="M 429.262331 141.645963 
L 425.515979 339.702547 
L 117.401753 455.528386 
" style="fill: none; stroke: #ffffff; stroke-width: 0.8"/>
    <path d="M 455.716635 149.00212 
L 451.273376 348.488752 
L 143.167961 466.31496 
" style="fill: none; stroke: #ffffff; stroke-width: 0.8"/>
    <path d="M 482.617345 156.482409 
L 477.454381 357.419456 
L 169.404313 477.298351 
" style="fill: none; stroke: #ffffff; stroke-width: 0.8"/>
    <path d="M 509.975856 164.089999 
L 504.06953 366.498252 
L 196.123796 488.483997 
" style="fill: none; stroke: #ffffff; stroke-width: 0.8"/>
   </g>
  </g>
  <g id="grid3d_3">
   <g id="Line3DCollection_3">
    <path d="M 42.800931 424.298053 
L 350.685058 314.176683 
L 504.06953 366.498252 
" style="fill: none; stroke: #ffffff; stroke-width: 0.8"/>
    <path d="M 41.7339 389.81103 
L 350.976384 282.522138 
L 505.032822 333.486484 
" style="fill: none; stroke: #ffffff; stroke-width: 0.8"/>
    <path d="M 40.657197 355.011426 
L 351.270098 250.6081 
L 506.004407 300.190519 
" style="fill: none; stroke: #ffffff; stroke-width: 0.8"/>
    <path d="M 39.570691 319.894971 
L 351.566229 218.431365 
L 506.984392 266.60667 
" style="fill: none; stroke: #ffffff; stroke-width: 0.8"/>
    <path d="M 38.474248 284.457318 
L 351.864809 185.988676 
L 507.972888 232.731189 
" style="fill: none; stroke: #ffffff; stroke-width: 0.8"/>
    <path d="M 37.367729 248.694039 
L 352.165866 153.276722 
L 508.970004 198.560259 
" style="fill: none; stroke: #ffffff; stroke-width: 0.8"/>
    <path d="M 36.250996 212.600627 
L 352.469433 120.292138 
L 509.975856 164.089999 
" style="fill: none; stroke: #ffffff; stroke-width: 0.8"/>
   </g>
  </g>
  <g id="axis3d_1">
   <g id="line2d_1">
    <path d="M 504.06953 366.498252 
L 196.123796 488.483997 
" style="fill: none; stroke: #ffffff; stroke-width: 0.8; stroke-linecap: square"/>
   </g>
   <g id="xtick_1">
    <g id="line2d_2">
     <path d="M 502.781923 366.059031 
L 506.647821 367.377743 
" style="fill: none; stroke: #ffffff; stroke-width: 0.8; stroke-linecap: square"/>
    </g>
    <g id="text_1">
     <!-- −2.0 -->
     <g style="fill: #ffffff" transform="translate(498.48204 384.740576) scale(0.1 -0.1)">
      <defs>
       <path id="DejaVuSans-2212" d="M 678 2272 
L 4684 2272 
L 4684 1741 
L 678 1741 
L 678 2272 
z
" transform="scale(0.015625)"/>
       <path id="DejaVuSans-32" d="M 1228 531 
L 3431 531 
L 3431 0 
L 469 0 
L 469 531 
Q 828 903 1448 1529 
Q 2069 2156 2228 2338 
Q 2531 2678 2651 2914 
Q 2772 3150 2772 3378 
Q 2772 3750 2511 3984 
Q 2250 4219 1831 4219 
Q 1534 4219 1204 4116 
Q 875 4013 500 3803 
L 500 4441 
Q 881 4594 1212 4672 
Q 1544 4750 1819 4750 
Q 2544 4750 2975 4387 
Q 3406 4025 3406 3419 
Q 3406 3131 3298 2873 
Q 3191 2616 2906 2266 
Q 2828 2175 2409 1742 
Q 1991 1309 1228 531 
z
" transform="scale(0.015625)"/>
       <path id="DejaVuSans-2e" d="M 684 794 
L 1344 794 
L 1344 0 
L 684 0 
L 684 794 
z
" transform="scale(0.015625)"/>
       <path id="DejaVuSans-30" d="M 2034 4250 
Q 1547 4250 1301 3770 
Q 1056 3291 1056 2328 
Q 1056 1369 1301 889 
Q 1547 409 2034 409 
Q 2525 409 2770 889 
Q 3016 1369 3016 2328 
Q 3016 3291 2770 3770 
Q 2525 4250 2034 4250 
z
M 2034 4750 
Q 2819 4750 3233 4129 
Q 3647 3509 3647 2328 
Q 3647 1150 3233 529 
Q 2819 -91 2034 -91 
Q 1250 -91 836 529 
Q 422 1150 422 2328 
Q 422 3509 836 4129 
Q 1250 4750 2034 4750 
z
" transform="scale(0.015625)"/>
      </defs>
      <use xlink:href="#DejaVuSans-2212"/>
      <use xlink:href="#DejaVuSans-32" transform="translate(83.789062 0)"/>
      <use xlink:href="#DejaVuSans-2e" transform="translate(147.412109 0)"/>
      <use xlink:href="#DejaVuSans-30" transform="translate(179.199219 0)"/>
     </g>
    </g>
   </g>
   <g id="xtick_2">
    <g id="line2d_3">
     <path d="M 467.679967 379.951928 
L 471.552118 381.30407 
" style="fill: none; stroke: #ffffff; stroke-width: 0.8; stroke-linecap: square"/>
    </g>
    <g id="text_2">
     <!-- −1.5 -->
     <g style="fill: #ffffff" transform="translate(463.428556 398.793132) scale(0.1 -0.1)">
      <defs>
       <path id="DejaVuSans-31" d="M 794 531 
L 1825 531 
L 1825 4091 
L 703 3866 
L 703 4441 
L 1819 4666 
L 2450 4666 
L 2450 531 
L 3481 531 
L 3481 0 
L 794 0 
L 794 531 
z
" transform="scale(0.015625)"/>
       <path id="DejaVuSans-35" d="M 691 4666 
L 3169 4666 
L 3169 4134 
L 1269 4134 
L 1269 2991 
Q 1406 3038 1543 3061 
Q 1681 3084 1819 3084 
Q 2600 3084 3056 2656 
Q 3513 2228 3513 1497 
Q 3513 744 3044 326 
Q 2575 -91 1722 -91 
Q 1428 -91 1123 -41 
Q 819 9 494 109 
L 494 744 
Q 775 591 1075 516 
Q 1375 441 1709 441 
Q 2250 441 2565 725 
Q 2881 1009 2881 1497 
Q 2881 1984 2565 2268 
Q 2250 2553 1709 2553 
Q 1456 2553 1204 2497 
Q 953 2441 691 2322 
L 691 4666 
z
" transform="scale(0.015625)"/>
      </defs>
      <use xlink:href="#DejaVuSans-2212"/>
      <use xlink:href="#DejaVuSans-31" transform="translate(83.789062 0)"/>
      <use xlink:href="#DejaVuSans-2e" transform="translate(147.412109 0)"/>
      <use xlink:href="#DejaVuSans-35" transform="translate(179.199219 0)"/>
     </g>
    </g>
   </g>
   <g id="xtick_3">
    <g id="line2d_4">
     <path d="M 431.682993 394.199062 
L 435.560459 395.585921 
" style="fill: none; stroke: #ffffff; stroke-width: 0.8; stroke-linecap: square"/>
    </g>
    <g id="text_3">
     <!-- −1.0 -->
     <g style="fill: #ffffff" transform="translate(427.47999 413.204516) scale(0.1 -0.1)">
      <use xlink:href="#DejaVuSans-2212"/>
      <use xlink:href="#DejaVuSans-31" transform="translate(83.789062 0)"/>
      <use xlink:href="#DejaVuSans-2e" transform="translate(147.412109 0)"/>
      <use xlink:href="#DejaVuSans-30" transform="translate(179.199219 0)"/>
     </g>
    </g>
   </g>
   <g id="xtick_4">
    <g id="line2d_5">
     <path d="M 394.756326 408.814156 
L 398.638092 410.237087 
" style="fill: none; stroke: #ffffff; stroke-width: 0.8; stroke-linecap: square"/>
    </g>
    <g id="text_4">
     <!-- −0.5 -->
     <g style="fill: #ffffff" transform="translate(390.601616 427.98865) scale(0.1 -0.1)">
      <use xlink:href="#DejaVuSans-2212"/>
      <use xlink:href="#DejaVuSans-30" transform="translate(83.789062 0)"/>
      <use xlink:href="#DejaVuSans-2e" transform="translate(147.412109 0)"/>
      <use xlink:href="#DejaVuSans-35" transform="translate(179.199219 0)"/>
     </g>
    </g>
   </g>
   <g id="xtick_5">
    <g id="line2d_6">
     <path d="M 356.86348 423.811651 
L 360.748443 425.27208 
" style="fill: none; stroke: #ffffff; stroke-width: 0.8; stroke-linecap: square"/>
    </g>
    <g id="text_5">
     <!-- 0.0 -->
     <g style="fill: #ffffff" transform="translate(356.946729 443.160186) scale(0.1 -0.1)">
      <use xlink:href="#DejaVuSans-30"/>
      <use xlink:href="#DejaVuSans-2e" transform="translate(63.623047 0)"/>
      <use xlink:href="#DejaVuSans-30" transform="translate(95.410156 0)"/>
     </g>
    </g>
   </g>
   <g id="xtick_6">
    <g id="line2d_7">
     <path d="M 317.966032 439.206754 
L 321.852996 440.706183 
" style="fill: none; stroke: #ffffff; stroke-width: 0.8; stroke-linecap: square"/>
    </g>
    <g id="text_6">
     <!-- 0.5 -->
     <g style="fill: #ffffff" transform="translate(318.097156 458.734552) scale(0.1 -0.1)">
      <use xlink:href="#DejaVuSans-30"/>
      <use xlink:href="#DejaVuSans-2e" transform="translate(63.623047 0)"/>
      <use xlink:href="#DejaVuSans-35" transform="translate(95.410156 0)"/>
     </g>
    </g>
   </g>
   <g id="xtick_7">
    <g id="line2d_8">
     <path d="M 278.023495 455.01549 
L 281.911165 456.555503 
" style="fill: none; stroke: #ffffff; stroke-width: 0.8; stroke-linecap: square"/>
    </g>
    <g id="text_7">
     <!-- 1.0 -->
     <g style="fill: #ffffff" transform="translate(278.202181 474.728008) scale(0.1 -0.1)">
      <use xlink:href="#DejaVuSans-31"/>
      <use xlink:href="#DejaVuSans-2e" transform="translate(63.623047 0)"/>
      <use xlink:href="#DejaVuSans-30" transform="translate(95.410156 0)"/>
     </g>
    </g>
   </g>
   <g id="xtick_8">
    <g id="line2d_9">
     <path d="M 236.993175 471.254756 
L 240.880147 472.837022 
" style="fill: none; stroke: #ffffff; stroke-width: 0.8; stroke-linecap: square"/>
    </g>
    <g id="text_8">
     <!-- 1.5 -->
     <g style="fill: #ffffff" transform="translate(237.219033 491.157701) scale(0.1 -0.1)">
      <use xlink:href="#DejaVuSans-31"/>
      <use xlink:href="#DejaVuSans-2e" transform="translate(63.623047 0)"/>
      <use xlink:href="#DejaVuSans-35" transform="translate(95.410156 0)"/>
     </g>
    </g>
   </g>
   <g id="xtick_9">
    <g id="line2d_10">
     <path d="M 194.830024 487.942382 
L 198.714774 489.568665 
" style="fill: none; stroke: #ffffff; stroke-width: 0.8; stroke-linecap: square"/>
    </g>
    <g id="text_9">
     <!-- 2.0 -->
     <g style="fill: #ffffff" transform="translate(195.102573 508.041726) scale(0.1 -0.1)">
      <use xlink:href="#DejaVuSans-32"/>
      <use xlink:href="#DejaVuSans-2e" transform="translate(63.623047 0)"/>
      <use xlink:href="#DejaVuSans-30" transform="translate(95.410156 0)"/>
     </g>
    </g>
   </g>
   <g id="text_10">
    <!-- X (Å) -->
    <g style="fill: #ffffff" transform="translate(364.022511 463.761772) rotate(-21.609876) scale(0.12 -0.12)">
     <defs>
      <path id="DejaVuSans-58" d="M 403 4666 
L 1081 4666 
L 2241 2931 
L 3406 4666 
L 4084 4666 
L 2584 2425 
L 4184 0 
L 3506 0 
L 2194 1984 
L 872 0 
L 191 0 
L 1856 2491 
L 403 4666 
z
" transform="scale(0.015625)"/>
      <path id="DejaVuSans-20" transform="scale(0.015625)"/>
      <path id="DejaVuSans-28" d="M 1984 4856 
Q 1566 4138 1362 3434 
Q 1159 2731 1159 2009 
Q 1159 1288 1364 580 
Q 1569 -128 1984 -844 
L 1484 -844 
Q 1016 -109 783 600 
Q 550 1309 550 2009 
Q 550 2706 781 3412 
Q 1013 4119 1484 4856 
L 1984 4856 
z
" transform="scale(0.015625)"/>
      <path id="DejaVuSans-c5" d="M 2663 5081 
Q 2663 5278 2523 5417 
Q 2384 5556 2188 5556 
Q 1988 5556 1852 5420 
Q 1716 5284 1716 5081 
Q 1716 4884 1853 4746 
Q 1991 4609 2188 4609 
Q 2384 4609 2523 4746 
Q 2663 4884 2663 5081 
z
M 2188 4044 
L 1338 1722 
L 3041 1722 
L 2188 4044 
z
M 1716 4366 
Q 1525 4494 1428 4673 
Q 1331 4853 1331 5081 
Q 1331 5441 1579 5691 
Q 1828 5941 2188 5941 
Q 2544 5941 2795 5689 
Q 3047 5438 3047 5081 
Q 3047 4863 2948 4678 
Q 2850 4494 2663 4366 
L 4325 0 
L 3669 0 
L 3244 1197 
L 1141 1197 
L 716 0 
L 50 0 
L 1716 4366 
z
" transform="scale(0.015625)"/>
      <path id="DejaVuSans-29" d="M 513 4856 
L 1013 4856 
Q 1481 4119 1714 3412 
Q 1947 2706 1947 2009 
Q 1947 1309 1714 600 
Q 1481 -109 1013 -844 
L 513 -844 
Q 928 -128 1133 580 
Q 1338 1288 1338 2009 
Q 1338 2731 1133 3434 
Q 928 4138 513 4856 
z
" transform="scale(0.015625)"/>
     </defs>
     <use xlink:href="#DejaVuSans-58"/>
     <use xlink:href="#DejaVuSans-20" transform="translate(68.505859 0)"/>
     <use xlink:href="#DejaVuSans-28" transform="translate(100.292969 0)"/>
     <use xlink:href="#DejaVuSans-c5" transform="translate(139.306641 0)"/>
     <use xlink:href="#DejaVuSans-29" transform="translate(207.714844 0)"/>
    </g>
   </g>
  </g>
  <g id="axis3d_2">
   <g id="line2d_11">
    <path d="M 42.800931 424.298053 
L 196.123796 488.483997 
" style="fill: none; stroke: #ffffff; stroke-width: 0.8; stroke-linecap: square"/>
   </g>
   <g id="xtick_10">
    <g id="line2d_12">
     <path d="M 45.519618 423.325656 
L 37.34987 426.247741 
" style="fill: none; stroke: #ffffff; stroke-width: 0.8; stroke-linecap: square"/>
    </g>
    <g id="text_11">
     <!-- −1.5 -->
     <g style="fill: #ffffff" transform="translate(16.539244 445.758568) scale(0.1 -0.1)">
      <use xlink:href="#DejaVuSans-2212"/>
      <use xlink:href="#DejaVuSans-31" transform="translate(83.789062 0)"/>
      <use xlink:href="#DejaVuSans-2e" transform="translate(147.412109 0)"/>
      <use xlink:href="#DejaVuSans-35" transform="translate(179.199219 0)"/>
     </g>
    </g>
   </g>
   <g id="xtick_11">
    <g id="line2d_13">
     <path d="M 69.952083 433.53532 
L 61.772343 436.509095 
" style="fill: none; stroke: #ffffff; stroke-width: 0.8; stroke-linecap: square"/>
    </g>
    <g id="text_12">
     <!-- −1.0 -->
     <g style="fill: #ffffff" transform="translate(40.924799 456.141778) scale(0.1 -0.1)">
      <use xlink:href="#DejaVuSans-2212"/>
      <use xlink:href="#DejaVuSans-31" transform="translate(83.789062 0)"/>
      <use xlink:href="#DejaVuSans-2e" transform="translate(147.412109 0)"/>
      <use xlink:href="#DejaVuSans-30" transform="translate(179.199219 0)"/>
     </g>
    </g>
   </g>
   <g id="xtick_12">
    <g id="line2d_14">
     <path d="M 94.818109 443.926158 
L 86.629312 446.953005 
" style="fill: none; stroke: #ffffff; stroke-width: 0.8; stroke-linecap: square"/>
    </g>
    <g id="text_13">
     <!-- −0.5 -->
     <g style="fill: #ffffff" transform="translate(65.744903 466.710017) scale(0.1 -0.1)">
      <use xlink:href="#DejaVuSans-2212"/>
      <use xlink:href="#DejaVuSans-30" transform="translate(83.789062 0)"/>
      <use xlink:href="#DejaVuSans-2e" transform="translate(147.412109 0)"/>
      <use xlink:href="#DejaVuSans-35" transform="translate(179.199219 0)"/>
     </g>
    </g>
   </g>
   <g id="xtick_13">
    <g id="line2d_15">
     <path d="M 120.129342 454.503035 
L 111.932474 457.584389 
" style="fill: none; stroke: #ffffff; stroke-width: 0.8; stroke-linecap: square"/>
    </g>
    <g id="text_14">
     <!-- 0.0 -->
     <g style="fill: #ffffff" transform="translate(95.201119 477.468274) scale(0.1 -0.1)">
      <use xlink:href="#DejaVuSans-30"/>
      <use xlink:href="#DejaVuSans-2e" transform="translate(63.623047 0)"/>
      <use xlink:href="#DejaVuSans-30" transform="translate(95.410156 0)"/>
     </g>
    </g>
   </g>
   <g id="xtick_14">
    <g id="line2d_16">
     <path d="M 145.897845 465.270993 
L 137.693953 468.408339 
" style="fill: none; stroke: #ffffff; stroke-width: 0.8; stroke-linecap: square"/>
    </g>
    <g id="text_15">
     <!-- 0.5 -->
     <g style="fill: #ffffff" transform="translate(120.925904 488.421721) scale(0.1 -0.1)">
      <use xlink:href="#DejaVuSans-30"/>
      <use xlink:href="#DejaVuSans-2e" transform="translate(63.623047 0)"/>
      <use xlink:href="#DejaVuSans-35" transform="translate(95.410156 0)"/>
     </g>
    </g>
   </g>
   <g id="xtick_15">
    <g id="line2d_17">
     <path d="M 172.136122 476.235257 
L 163.926315 479.430136 
" style="fill: none; stroke: #ffffff; stroke-width: 0.8; stroke-linecap: square"/>
    </g>
    <g id="text_16">
     <!-- 1.0 -->
     <g style="fill: #ffffff" transform="translate(147.121694 499.575717) scale(0.1 -0.1)">
      <use xlink:href="#DejaVuSans-31"/>
      <use xlink:href="#DejaVuSans-2e" transform="translate(63.623047 0)"/>
      <use xlink:href="#DejaVuSans-30" transform="translate(95.410156 0)"/>
     </g>
    </g>
   </g>
   <g id="xtick_16">
    <g id="line2d_18">
     <path d="M 198.857139 487.401245 
L 190.64259 490.655253 
" style="fill: none; stroke: #ffffff; stroke-width: 0.8; stroke-linecap: square"/>
    </g>
    <g id="text_17">
     <!-- 1.5 -->
     <g style="fill: #ffffff" transform="translate(173.801541 510.935823) scale(0.1 -0.1)">
      <use xlink:href="#DejaVuSans-31"/>
      <use xlink:href="#DejaVuSans-2e" transform="translate(63.623047 0)"/>
      <use xlink:href="#DejaVuSans-35" transform="translate(95.410156 0)"/>
     </g>
    </g>
   </g>
   <g id="text_18">
    <!-- Y (Å) -->
    <g style="fill: #ffffff" transform="translate(64.03317 492.431768) rotate(-337.284227) scale(0.12 -0.12)">
     <defs>
      <path id="DejaVuSans-59" d="M -13 4666 
L 666 4666 
L 1959 2747 
L 3244 4666 
L 3922 4666 
L 2272 2222 
L 2272 0 
L 1638 0 
L 1638 2222 
L -13 4666 
z
" transform="scale(0.015625)"/>
     </defs>
     <use xlink:href="#DejaVuSans-59"/>
     <use xlink:href="#DejaVuSans-20" transform="translate(61.083984 0)"/>
     <use xlink:href="#DejaVuSans-28" transform="translate(92.871094 0)"/>
     <use xlink:href="#DejaVuSans-c5" transform="translate(131.884766 0)"/>
     <use xlink:href="#DejaVuSans-29" transform="translate(200.292969 0)"/>
    </g>
   </g>
  </g>
  <g id="axis3d_3">
   <g id="line2d_19">
    <path d="M 42.800931 424.298053 
L 36.250996 212.600627 
" style="fill: none; stroke: #ffffff; stroke-width: 0.8; stroke-linecap: square"/>
   </g>
   <g id="xtick_17">
    <g id="line2d_20">
     <path d="M 45.519618 423.325656 
L 37.34987 426.247741 
" style="fill: none; stroke: #ffffff; stroke-width: 0.8; stroke-linecap: square"/>
    </g>
    <g id="text_19">
     <!-- −1.5 -->
     <g style="fill: #ffffff" transform="translate(10.144408 434.467161) scale(0.1 -0.1)">
      <use xlink:href="#DejaVuSans-2212"/>
      <use xlink:href="#DejaVuSans-31" transform="translate(83.789062 0)"/>
      <use xlink:href="#DejaVuSans-2e" transform="translate(147.412109 0)"/>
      <use xlink:href="#DejaVuSans-35" transform="translate(179.199219 0)"/>
     </g>
    </g>
   </g>
   <g id="xtick_18">
    <g id="line2d_21">
     <path d="M 44.465739 388.863243 
L 36.256407 391.711397 
" style="fill: none; stroke: #ffffff; stroke-width: 0.8; stroke-linecap: square"/>
    </g>
    <g id="text_20">
     <!-- −1.0 -->
     <g style="fill: #ffffff" transform="translate(8.982247 399.915113) scale(0.1 -0.1)">
      <use xlink:href="#DejaVuSans-2212"/>
      <use xlink:href="#DejaVuSans-31" transform="translate(83.789062 0)"/>
      <use xlink:href="#DejaVuSans-2e" transform="translate(147.412109 0)"/>
      <use xlink:href="#DejaVuSans-30" transform="translate(179.199219 0)"/>
     </g>
    </g>
   </g>
   <g id="xtick_19">
    <g id="line2d_22">
     <path d="M 43.402316 354.088735 
L 35.153016 356.861493 
" style="fill: none; stroke: #ffffff; stroke-width: 0.8; stroke-linecap: square"/>
    </g>
    <g id="text_21">
     <!-- −0.5 -->
     <g style="fill: #ffffff" transform="translate(7.809529 365.049195) scale(0.1 -0.1)">
      <use xlink:href="#DejaVuSans-2212"/>
      <use xlink:href="#DejaVuSans-30" transform="translate(83.789062 0)"/>
      <use xlink:href="#DejaVuSans-2e" transform="translate(147.412109 0)"/>
      <use xlink:href="#DejaVuSans-35" transform="translate(179.199219 0)"/>
     </g>
    </g>
   </g>
   <g id="xtick_20">
    <g id="line2d_23">
     <path d="M 42.329218 318.997874 
L 34.039561 321.693741 
" style="fill: none; stroke: #ffffff; stroke-width: 0.8; stroke-linecap: square"/>
    </g>
    <g id="text_22">
     <!-- 0.0 -->
     <g style="fill: #ffffff" transform="translate(10.815953 329.86511) scale(0.1 -0.1)">
      <use xlink:href="#DejaVuSans-30"/>
      <use xlink:href="#DejaVuSans-2e" transform="translate(63.623047 0)"/>
      <use xlink:href="#DejaVuSans-30" transform="translate(95.410156 0)"/>
     </g>
    </g>
   </g>
   <g id="xtick_21">
    <g id="line2d_24">
     <path d="M 41.246313 283.586323 
L 32.915905 286.203772 
" style="fill: none; stroke: #ffffff; stroke-width: 0.8; stroke-linecap: square"/>
    </g>
    <g id="text_23">
     <!-- 0.5 -->
     <g style="fill: #ffffff" transform="translate(9.621685 294.358483) scale(0.1 -0.1)">
      <use xlink:href="#DejaVuSans-30"/>
      <use xlink:href="#DejaVuSans-2e" transform="translate(63.623047 0)"/>
      <use xlink:href="#DejaVuSans-35" transform="translate(95.410156 0)"/>
     </g>
    </g>
   </g>
   <g id="xtick_22">
    <g id="line2d_25">
     <path d="M 40.153467 247.849664 
L 31.781906 250.387138 
" style="fill: none; stroke: #ffffff; stroke-width: 0.8; stroke-linecap: square"/>
    </g>
    <g id="text_24">
     <!-- 1.0 -->
     <g style="fill: #ffffff" transform="translate(8.416418 258.52486) scale(0.1 -0.1)">
      <use xlink:href="#DejaVuSans-31"/>
      <use xlink:href="#DejaVuSans-2e" transform="translate(63.623047 0)"/>
      <use xlink:href="#DejaVuSans-30" transform="translate(95.410156 0)"/>
     </g>
    </g>
   </g>
   <g id="xtick_23">
    <g id="line2d_26">
     <path d="M 39.050541 211.783402 
L 30.637421 214.239307 
" style="fill: none; stroke: #ffffff; stroke-width: 0.8; stroke-linecap: square"/>
    </g>
    <g id="text_25">
     <!-- 1.5 -->
     <g style="fill: #ffffff" transform="translate(7.2 222.3597) scale(0.1 -0.1)">
      <use xlink:href="#DejaVuSans-31"/>
      <use xlink:href="#DejaVuSans-2e" transform="translate(63.623047 0)"/>
      <use xlink:href="#DejaVuSans-35" transform="translate(95.410156 0)"/>
     </g>
    </g>
   </g>
   <g id="text_26">
    <!-- Z (Å) -->
    <g style="fill: #ffffff" transform="translate(-21.04277 311.636151) rotate(-271.772171) scale(0.12 -0.12)">
     <defs>
      <path id="DejaVuSans-5a" d="M 359 4666 
L 4025 4666 
L 4025 4184 
L 1075 531 
L 4097 531 
L 4097 0 
L 288 0 
L 288 481 
L 3238 4134 
L 359 4134 
L 359 4666 
z
" transform="scale(0.015625)"/>
     </defs>
     <use xlink:href="#DejaVuSans-5a"/>
     <use xlink:href="#DejaVuSans-20" transform="translate(68.505859 0)"/>
     <use xlink:href="#DejaVuSans-28" transform="translate(100.292969 0)"/>
     <use xlink:href="#DejaVuSans-c5" transform="translate(139.306641 0)"/>
     <use xlink:href="#DejaVuSans-29" transform="translate(207.714844 0)"/>
    </g>
   </g>
  </g>
  <g id="axes_1">
   <g id="line2d_27">
    <path d="M 279.31827 284.42949 
L 318.876038 338.878146 
" clip-path="url(#pcf3bd6ebd2)" style="fill: none; stroke-dasharray: 5.55,2.4; stroke-dashoffset: 0; stroke: #ffffff; stroke-opacity: 0.3; stroke-width: 1.5"/>
   </g>
   <g id="line2d_28">
    <path d="M 279.31827 284.42949 
L 240.772993 311.326155 
" clip-path="url(#pcf3bd6ebd2)" style="fill: none; stroke-dasharray: 5.55,2.4; stroke-dashoffset: 0; stroke: #ffffff; stroke-opacity: 0.3; stroke-width: 1.5"/>
   </g>
   <g id="Path3DCollection_1">
    <defs>
     <path id="ma0e22b67f8" d="M 0 3.535534 
C 0.937635 3.535534 1.836992 3.163008 2.5 2.5 
C 3.163008 1.836992 3.535534 0.937635 3.535534 0 
C 3.535534 -0.937635 3.163008 -1.836992 2.5 -2.5 
C 1.836992 -3.163008 0.937635 -3.535534 0 -3.535534 
C -0.937635 -3.535534 -1.836992 -3.163008 -2.5 -2.5 
C -3.163008 -1.836992 -3.535534 -0.937635 -3.535534 0 
C -3.535534 0.937635 -3.163008 1.836992 -2.5 2.5 
C -1.836992 3.163008 -0.937635 3.535534 0 3.535534 
z
" style="stroke: #ffffff; stroke-opacity: 0.6; stroke-width: 0.5"/>
    </defs>
    <g clip-path="url(#pcf3bd6ebd2)">
     <use xlink:href="#ma0e22b67f8" x="187.882464" y="363.34328" style="fill: #00ff00; fill-opacity: 0.6; stroke: #ffffff; stroke-opacity: 0.6; stroke-width: 0.5"/>
    </g>
   </g>
   <g id="text_27">
    <!-- Quantum Forces around H₂O Molecule -->
    <g style="fill: #ffffff" transform="translate(138.791969 17.837812) scale(0.14 -0.14)">
     <defs>
      <path id="DejaVuSans-51" d="M 2522 4238 
Q 1834 4238 1429 3725 
Q 1025 3213 1025 2328 
Q 1025 1447 1429 934 
Q 1834 422 2522 422 
Q 3209 422 3611 934 
Q 4013 1447 4013 2328 
Q 4013 3213 3611 3725 
Q 3209 4238 2522 4238 
z
M 3406 84 
L 4238 -825 
L 3475 -825 
L 2784 -78 
Q 2681 -84 2626 -87 
Q 2572 -91 2522 -91 
Q 1538 -91 948 567 
Q 359 1225 359 2328 
Q 359 3434 948 4092 
Q 1538 4750 2522 4750 
Q 3503 4750 4090 4092 
Q 4678 3434 4678 2328 
Q 4678 1516 4351 937 
Q 4025 359 3406 84 
z
" transform="scale(0.015625)"/>
      <path id="DejaVuSans-75" d="M 544 1381 
L 544 3500 
L 1119 3500 
L 1119 1403 
Q 1119 906 1312 657 
Q 1506 409 1894 409 
Q 2359 409 2629 706 
Q 2900 1003 2900 1516 
L 2900 3500 
L 3475 3500 
L 3475 0 
L 2900 0 
L 2900 538 
Q 2691 219 2414 64 
Q 2138 -91 1772 -91 
Q 1169 -91 856 284 
Q 544 659 544 1381 
z
M 1991 3584 
L 1991 3584 
z
" transform="scale(0.015625)"/>
      <path id="DejaVuSans-61" d="M 2194 1759 
Q 1497 1759 1228 1600 
Q 959 1441 959 1056 
Q 959 750 1161 570 
Q 1363 391 1709 391 
Q 2188 391 2477 730 
Q 2766 1069 2766 1631 
L 2766 1759 
L 2194 1759 
z
M 3341 1997 
L 3341 0 
L 2766 0 
L 2766 531 
Q 2569 213 2275 61 
Q 1981 -91 1556 -91 
Q 1019 -91 701 211 
Q 384 513 384 1019 
Q 384 1609 779 1909 
Q 1175 2209 1959 2209 
L 2766 2209 
L 2766 2266 
Q 2766 2663 2505 2880 
Q 2244 3097 1772 3097 
Q 1472 3097 1187 3025 
Q 903 2953 641 2809 
L 641 3341 
Q 956 3463 1253 3523 
Q 1550 3584 1831 3584 
Q 2591 3584 2966 3190 
Q 3341 2797 3341 1997 
z
" transform="scale(0.015625)"/>
      <path id="DejaVuSans-6e" d="M 3513 2113 
L 3513 0 
L 2938 0 
L 2938 2094 
Q 2938 2591 2744 2837 
Q 2550 3084 2163 3084 
Q 1697 3084 1428 2787 
Q 1159 2491 1159 1978 
L 1159 0 
L 581 0 
L 581 3500 
L 1159 3500 
L 1159 2956 
Q 1366 3272 1645 3428 
Q 1925 3584 2291 3584 
Q 2894 3584 3203 3211 
Q 3513 2838 3513 2113 
z
" transform="scale(0.015625)"/>
      <path id="DejaVuSans-74" d="M 1172 4494 
L 1172 3500 
L 2356 3500 
L 2356 3053 
L 1172 3053 
L 1172 1153 
Q 1172 725 1289 603 
Q 1406 481 1766 481 
L 2356 481 
L 2356 0 
L 1766 0 
Q 1100 0 847 248 
Q 594 497 594 1153 
L 594 3053 
L 172 3053 
L 172 3500 
L 594 3500 
L 594 4494 
L 1172 4494 
z
" transform="scale(0.015625)"/>
      <path id="DejaVuSans-6d" d="M 3328 2828 
Q 3544 3216 3844 3400 
Q 4144 3584 4550 3584 
Q 5097 3584 5394 3201 
Q 5691 2819 5691 2113 
L 5691 0 
L 5113 0 
L 5113 2094 
Q 5113 2597 4934 2840 
Q 4756 3084 4391 3084 
Q 3944 3084 3684 2787 
Q 3425 2491 3425 1978 
L 3425 0 
L 2847 0 
L 2847 2094 
Q 2847 2600 2669 2842 
Q 2491 3084 2119 3084 
Q 1678 3084 1418 2786 
Q 1159 2488 1159 1978 
L 1159 0 
L 581 0 
L 581 3500 
L 1159 3500 
L 1159 2956 
Q 1356 3278 1631 3431 
Q 1906 3584 2284 3584 
Q 2666 3584 2933 3390 
Q 3200 3197 3328 2828 
z
" transform="scale(0.015625)"/>
      <path id="DejaVuSans-46" d="M 628 4666 
L 3309 4666 
L 3309 4134 
L 1259 4134 
L 1259 2759 
L 3109 2759 
L 3109 2228 
L 1259 2228 
L 1259 0 
L 628 0 
L 628 4666 
z
" transform="scale(0.015625)"/>
      <path id="DejaVuSans-6f" d="M 1959 3097 
Q 1497 3097 1228 2736 
Q 959 2375 959 1747 
Q 959 1119 1226 758 
Q 1494 397 1959 397 
Q 2419 397 2687 759 
Q 2956 1122 2956 1747 
Q 2956 2369 2687 2733 
Q 2419 3097 1959 3097 
z
M 1959 3584 
Q 2709 3584 3137 3096 
Q 3566 2609 3566 1747 
Q 3566 888 3137 398 
Q 2709 -91 1959 -91 
Q 1206 -91 779 398 
Q 353 888 353 1747 
Q 353 2609 779 3096 
Q 1206 3584 1959 3584 
z
" transform="scale(0.015625)"/>
      <path id="DejaVuSans-72" d="M 2631 2963 
Q 2534 3019 2420 3045 
Q 2306 3072 2169 3072 
Q 1681 3072 1420 2755 
Q 1159 2438 1159 1844 
L 1159 0 
L 581 0 
L 581 3500 
L 1159 3500 
L 1159 2956 
Q 1341 3275 1631 3429 
Q 1922 3584 2338 3584 
Q 2397 3584 2469 3576 
Q 2541 3569 2628 3553 
L 2631 2963 
z
" transform="scale(0.015625)"/>
      <path id="DejaVuSans-63" d="M 3122 3366 
L 3122 2828 
Q 2878 2963 2633 3030 
Q 2388 3097 2138 3097 
Q 1578 3097 1268 2742 
Q 959 2388 959 1747 
Q 959 1106 1268 751 
Q 1578 397 2138 397 
Q 2388 397 2633 464 
Q 2878 531 3122 666 
L 3122 134 
Q 2881 22 2623 -34 
Q 2366 -91 2075 -91 
Q 1284 -91 818 406 
Q 353 903 353 1747 
Q 353 2603 823 3093 
Q 1294 3584 2113 3584 
Q 2378 3584 2631 3529 
Q 2884 3475 3122 3366 
z
" transform="scale(0.015625)"/>
      <path id="DejaVuSans-65" d="M 3597 1894 
L 3597 1613 
L 953 1613 
Q 991 1019 1311 708 
Q 1631 397 2203 397 
Q 2534 397 2845 478 
Q 3156 559 3463 722 
L 3463 178 
Q 3153 47 2828 -22 
Q 2503 -91 2169 -91 
Q 1331 -91 842 396 
Q 353 884 353 1716 
Q 353 2575 817 3079 
Q 1281 3584 2069 3584 
Q 2775 3584 3186 3129 
Q 3597 2675 3597 1894 
z
M 3022 2063 
Q 3016 2534 2758 2815 
Q 2500 3097 2075 3097 
Q 1594 3097 1305 2825 
Q 1016 2553 972 2059 
L 3022 2063 
z
" transform="scale(0.015625)"/>
      <path id="DejaVuSans-73" d="M 2834 3397 
L 2834 2853 
Q 2591 2978 2328 3040 
Q 2066 3103 1784 3103 
Q 1356 3103 1142 2972 
Q 928 2841 928 2578 
Q 928 2378 1081 2264 
Q 1234 2150 1697 2047 
L 1894 2003 
Q 2506 1872 2764 1633 
Q 3022 1394 3022 966 
Q 3022 478 2636 193 
Q 2250 -91 1575 -91 
Q 1294 -91 989 -36 
Q 684 19 347 128 
L 347 722 
Q 666 556 975 473 
Q 1284 391 1588 391 
Q 1994 391 2212 530 
Q 2431 669 2431 922 
Q 2431 1156 2273 1281 
Q 2116 1406 1581 1522 
L 1381 1569 
Q 847 1681 609 1914 
Q 372 2147 372 2553 
Q 372 3047 722 3315 
Q 1072 3584 1716 3584 
Q 2034 3584 2315 3537 
Q 2597 3491 2834 3397 
z
" transform="scale(0.015625)"/>
      <path id="DejaVuSans-64" d="M 2906 2969 
L 2906 4863 
L 3481 4863 
L 3481 0 
L 2906 0 
L 2906 525 
Q 2725 213 2448 61 
Q 2172 -91 1784 -91 
Q 1150 -91 751 415 
Q 353 922 353 1747 
Q 353 2572 751 3078 
Q 1150 3584 1784 3584 
Q 2172 3584 2448 3432 
Q 2725 3281 2906 2969 
z
M 947 1747 
Q 947 1113 1208 752 
Q 1469 391 1925 391 
Q 2381 391 2643 752 
Q 2906 1113 2906 1747 
Q 2906 2381 2643 2742 
Q 2381 3103 1925 3103 
Q 1469 3103 1208 2742 
Q 947 2381 947 1747 
z
" transform="scale(0.015625)"/>
      <path id="DejaVuSans-48" d="M 628 4666 
L 1259 4666 
L 1259 2753 
L 3553 2753 
L 3553 4666 
L 4184 4666 
L 4184 0 
L 3553 0 
L 3553 2222 
L 1259 2222 
L 1259 0 
L 628 0 
L 628 4666 
z
" transform="scale(0.015625)"/>
      <path id="DejaVuSans-2082" d="M 838 332 
L 2163 332 
L 2163 -24 
L 294 -24 
L 294 319 
Q 400 416 597 591 
Q 1672 1544 1672 1838 
Q 1672 2044 1509 2170 
Q 1347 2297 1081 2297 
Q 919 2297 728 2242 
Q 538 2188 313 2079 
L 313 2463 
Q 553 2551 761 2594 
Q 969 2638 1147 2638 
Q 1600 2638 1872 2432 
Q 2144 2226 2144 1888 
Q 2144 1454 1109 566 
Q 934 416 838 332 
z
" transform="scale(0.015625)"/>
      <path id="DejaVuSans-4f" d="M 2522 4238 
Q 1834 4238 1429 3725 
Q 1025 3213 1025 2328 
Q 1025 1447 1429 934 
Q 1834 422 2522 422 
Q 3209 422 3611 934 
Q 4013 1447 4013 2328 
Q 4013 3213 3611 3725 
Q 3209 4238 2522 4238 
z
M 2522 4750 
Q 3503 4750 4090 4092 
Q 4678 3434 4678 2328 
Q 4678 1225 4090 567 
Q 3503 -91 2522 -91 
Q 1538 -91 948 565 
Q 359 1222 359 2328 
Q 359 3434 948 4092 
Q 1538 4750 2522 4750 
z
" transform="scale(0.015625)"/>
      <path id="DejaVuSans-4d" d="M 628 4666 
L 1569 4666 
L 2759 1491 
L 3956 4666 
L 4897 4666 
L 4897 0 
L 4281 0 
L 4281 4097 
L 3078 897 
L 2444 897 
L 1241 4097 
L 1241 0 
L 628 0 
L 628 4666 
z
" transform="scale(0.015625)"/>
      <path id="DejaVuSans-6c" d="M 603 4863 
L 1178 4863 
L 1178 0 
L 603 0 
L 603 4863 
z
" transform="scale(0.015625)"/>
     </defs>
     <use xlink:href="#DejaVuSans-51"/>
     <use xlink:href="#DejaVuSans-75" transform="translate(78.710938 0)"/>
     <use xlink:href="#DejaVuSans-61" transform="translate(142.089844 0)"/>
     <use xlink:href="#DejaVuSans-6e" transform="translate(203.369141 0)"/>
     <use xlink:href="#DejaVuSans-74" transform="translate(266.748047 0)"/>
     <use xlink:href="#DejaVuSans-75" transform="translate(305.957031 0)"/>
     <use xlink:href="#DejaVuSans-6d" transform="translate(369.335938 0)"/>
     <use xlink:href="#DejaVuSans-20" transform="translate(466.748047 0)"/>
     <use xlink:href="#DejaVuSans-46" transform="translate(498.535156 0)"/>
     <use xlink:href="#DejaVuSans-6f" transform="translate(552.429688 0)"/>
     <use xlink:href="#DejaVuSans-72" transform="translate(613.611328 0)"/>
     <use xlink:href="#DejaVuSans-63" transform="translate(652.474609 0)"/>
     <use xlink:href="#DejaVuSans-65" transform="translate(707.455078 0)"/>
     <use xlink:href="#DejaVuSans-73" transform="translate(768.978516 0)"/>
     <use xlink:href="#DejaVuSans-20" transform="translate(821.078125 0)"/>
     <use xlink:href="#DejaVuSans-61" transform="translate(852.865234 0)"/>
     <use xlink:href="#DejaVuSans-72" transform="translate(914.144531 0)"/>
     <use xlink:href="#DejaVuSans-6f" transform="translate(953.007812 0)"/>
     <use xlink:href="#DejaVuSans-75" transform="translate(1014.189453 0)"/>
     <use xlink:href="#DejaVuSans-6e" transform="translate(1077.568359 0)"/>
     <use xlink:href="#DejaVuSans-64" transform="translate(1140.947266 0)"/>
     <use xlink:href="#DejaVuSans-20" transform="translate(1204.423828 0)"/>
     <use xlink:href="#DejaVuSans-48" transform="translate(1236.210938 0)"/>
     <use xlink:href="#DejaVuSans-2082" transform="translate(1311.40625 0)"/>
     <use xlink:href="#DejaVuSans-4f" transform="translate(1351.494141 0)"/>
     <use xlink:href="#DejaVuSans-20" transform="translate(1430.205078 0)"/>
     <use xlink:href="#DejaVuSans-4d" transform="translate(1461.992188 0)"/>
     <use xlink:href="#DejaVuSans-6f" transform="translate(1548.271484 0)"/>
     <use xlink:href="#DejaVuSans-6c" transform="translate(1609.453125 0)"/>
     <use xlink:href="#DejaVuSans-65" transform="translate(1637.236328 0)"/>
     <use xlink:href="#DejaVuSans-63" transform="translate(1698.759766 0)"/>
     <use xlink:href="#DejaVuSans-75" transform="translate(1753.740234 0)"/>
     <use xlink:href="#DejaVuSans-6c" transform="translate(1817.119141 0)"/>
     <use xlink:href="#DejaVuSans-65" transform="translate(1844.902344 0)"/>
    </g>
   </g>
   <g id="Path3DCollection_2">
    <g clip-path="url(#pcf3bd6ebd2)">
     <use xlink:href="#ma0e22b67f8" x="187.881428" y="340.914887" style="fill: #00ff00; fill-opacity: 0.6; stroke: #ffffff; stroke-opacity: 0.6; stroke-width: 0.5"/>
    </g>
   </g>
   <g id="Line3DCollection_4">
    <path d="M 198.878743 344.64241 
L 187.882464 363.34328 
" clip-path="url(#pcf3bd6ebd2)" style="fill: none; stroke: #ff00ff; stroke-opacity: 0.4; stroke-width: 1.5"/>
    <path d="M 198.878743 344.64241 
L 197.567163 350.606611 
" clip-path="url(#pcf3bd6ebd2)" style="fill: none; stroke: #ff00ff; stroke-opacity: 0.4; stroke-width: 1.5"/>
    <path d="M 198.878743 344.64241 
L 193.808877 349.529443 
" clip-path="url(#pcf3bd6ebd2)" style="fill: none; stroke: #ff00ff; stroke-opacity: 0.4; stroke-width: 1.5"/>
   </g>
   <g id="legend_1">
    <g id="patch_6">
     <path d="M 477.796344 82.665312 
L 525.642594 82.665312 
Q 528.042594 82.665312 528.042594 80.265312 
L 528.042594 46.237812 
Q 528.042594 43.837812 525.642594 43.837812 
L 477.796344 43.837812 
Q 475.396344 43.837812 475.396344 46.237812 
L 475.396344 80.265312 
Q 475.396344 82.665312 477.796344 82.665312 
z
" style="opacity: 0.8; stroke: #ffffff; stroke-linejoin: miter"/>
    </g>
    <g id="Path3DCollection_3">
     <defs>
      <path id="m6164f1b180" d="M 0 7.071068 
C 1.875269 7.071068 3.673985 6.326016 5 5 
C 6.326016 3.673985 7.071068 1.875269 7.071068 0 
C 7.071068 -1.875269 6.326016 -3.673985 5 -5 
C 3.673985 -6.326016 1.875269 -7.071068 0 -7.071068 
C -1.875269 -7.071068 -3.673985 -6.326016 -5 -5 
C -6.326016 -3.673985 -7.071068 -1.875269 -7.071068 0 
C -7.071068 1.875269 -6.326016 3.673985 -5 5 
C -3.673985 6.326016 -1.875269 7.071068 0 7.071068 
z
" style="stroke: #ffffff; stroke-opacity: 0.8"/>
     </defs>
     <g>
      <use xlink:href="#m6164f1b180" x="492.196344" y="54.605937" style="fill: #ff0000; fill-opacity: 0.8; stroke: #ffffff; stroke-opacity: 0.8"/>
     </g>
    </g>
    <g id="text_28">
     <!-- O -->
     <g style="fill: #ffffff" transform="translate(513.796344 57.755937) scale(0.12 -0.12)">
      <use xlink:href="#DejaVuSans-4f"/>
     </g>
    </g>
    <g id="Path3DCollection_4">
     <defs>
      <path id="m0cf0bddc8f" d="M 0 5 
C 1.326016 5 2.597899 4.473168 3.535534 3.535534 
C 4.473168 2.597899 5 1.326016 5 0 
C 5 -1.326016 4.473168 -2.597899 3.535534 -3.535534 
C 2.597899 -4.473168 1.326016 -5 0 -5 
C -1.326016 -5 -2.597899 -4.473168 -3.535534 -3.535534 
C -4.473168 -2.597899 -5 -1.326016 -5 0 
C -5 1.326016 -4.473168 2.597899 -3.535534 3.535534 
C -2.597899 4.473168 -1.326016 5 0 5 
z
" style="stroke: #ffffff; stroke-opacity: 0.6"/>
     </defs>
     <g>
      <use xlink:href="#m0cf0bddc8f" x="492.196344" y="72.219687" style="fill: #00ffff; fill-opacity: 0.6; stroke: #ffffff; stroke-opacity: 0.6"/>
     </g>
    </g>
    <g id="text_29">
     <!-- H -->
     <g style="fill: #ffffff" transform="translate(513.796344 75.369687) scale(0.12 -0.12)">
      <use xlink:href="#DejaVuSans-48"/>
     </g>
    </g>
   </g>
   <g id="Path3DCollection_5">
    <g clip-path="url(#pcf3bd6ebd2)">
     <use xlink:href="#ma0e22b67f8" x="277.287695" y="175.552323" style="fill: #00ff00; fill-opacity: 0.6; stroke: #ffffff; stroke-opacity: 0.6; stroke-width: 0.5"/>
    </g>
   </g>
   <g id="Line3DCollection_5">
    <path d="M 297.193129 159.311186 
L 277.287695 175.552323 
" clip-path="url(#pcf3bd6ebd2)" style="fill: none; stroke: #ff00ff; stroke-opacity: 0.4; stroke-width: 1.5"/>
    <path d="M 297.193129 159.311186 
L 292.87324 165.009695 
" clip-path="url(#pcf3bd6ebd2)" style="fill: none; stroke: #ff00ff; stroke-opacity: 0.4; stroke-width: 1.5"/>
    <path d="M 297.193129 159.311186 
L 289.98166 163.019857 
" clip-path="url(#pcf3bd6ebd2)" style="fill: none; stroke: #ff00ff; stroke-opacity: 0.4; stroke-width: 1.5"/>
   </g>
   <g id="Line3DCollection_6">
    <path d="M 196.27783 354.186263 
L 187.881428 340.914887 
" clip-path="url(#pcf3bd6ebd2)" style="fill: none; stroke: #ff00ff; stroke-opacity: 0.4; stroke-width: 1.5"/>
    <path d="M 196.27783 354.186263 
L 193.630774 351.611734 
" clip-path="url(#pcf3bd6ebd2)" style="fill: none; stroke: #ff00ff; stroke-opacity: 0.4; stroke-width: 1.5"/>
    <path d="M 196.27783 354.186263 
L 194.039954 349.038507 
" clip-path="url(#pcf3bd6ebd2)" style="fill: none; stroke: #ff00ff; stroke-opacity: 0.4; stroke-width: 1.5"/>
   </g>
   <g id="Path3DCollection_6">
    <g clip-path="url(#pcf3bd6ebd2)">
     <use xlink:href="#ma0e22b67f8" x="272.445315" y="249.860085" style="fill: #00ff00; fill-opacity: 0.6; stroke: #ffffff; stroke-opacity: 0.6; stroke-width: 0.5"/>
    </g>
   </g>
   <g id="Line3DCollection_7">
    <path d="M 279.095776 264.510676 
L 272.445315 249.860085 
" clip-path="url(#pcf3bd6ebd2)" style="fill: none; stroke: #ff00ff; stroke-opacity: 0.4; stroke-width: 1.5"/>
    <path d="M 279.095776 264.510676 
L 276.068505 261.567538 
" clip-path="url(#pcf3bd6ebd2)" style="fill: none; stroke: #ff00ff; stroke-opacity: 0.4; stroke-width: 1.5"/>
    <path d="M 279.095776 264.510676 
L 278.284178 259.001013 
" clip-path="url(#pcf3bd6ebd2)" style="fill: none; stroke: #ff00ff; stroke-opacity: 0.4; stroke-width: 1.5"/>
   </g>
   <g id="Path3DCollection_7">
    <g clip-path="url(#pcf3bd6ebd2)">
     <use xlink:href="#ma0e22b67f8" x="377.461021" y="348.010848" style="fill: #00ff00; fill-opacity: 0.6; stroke: #ffffff; stroke-opacity: 0.6; stroke-width: 0.5"/>
    </g>
   </g>
   <g id="Line3DCollection_8">
    <path d="M 360.836744 345.148546 
L 377.461021 348.010848 
" clip-path="url(#pcf3bd6ebd2)" style="fill: none; stroke: #ff00ff; stroke-opacity: 0.4; stroke-width: 1.5"/>
    <path d="M 360.836744 345.148546 
L 365.761783 347.568772 
" clip-path="url(#pcf3bd6ebd2)" style="fill: none; stroke: #ff00ff; stroke-opacity: 0.4; stroke-width: 1.5"/>
    <path d="M 360.836744 345.148546 
L 365.512441 344.380832 
" clip-path="url(#pcf3bd6ebd2)" style="fill: none; stroke: #ff00ff; stroke-opacity: 0.4; stroke-width: 1.5"/>
   </g>
   <g id="Path3DCollection_8">
    <g clip-path="url(#pcf3bd6ebd2)">
     <use xlink:href="#ma0e22b67f8" x="317.151041" y="345.10963" style="fill: #00ff00; fill-opacity: 0.6; stroke: #ffffff; stroke-opacity: 0.6; stroke-width: 0.5"/>
    </g>
   </g>
   <g id="Line3DCollection_9">
    <path d="M 329.091343 324.948535 
L 317.151041 345.10963 
" clip-path="url(#pcf3bd6ebd2)" style="fill: none; stroke: #ff00ff; stroke-opacity: 0.4; stroke-width: 1.5"/>
    <path d="M 329.091343 324.948535 
L 327.536345 331.162293 
" clip-path="url(#pcf3bd6ebd2)" style="fill: none; stroke: #ff00ff; stroke-opacity: 0.4; stroke-width: 1.5"/>
    <path d="M 329.091343 324.948535 
L 323.722113 330.42355 
" clip-path="url(#pcf3bd6ebd2)" style="fill: none; stroke: #ff00ff; stroke-opacity: 0.4; stroke-width: 1.5"/>
   </g>
   <g id="Path3DCollection_9">
    <g clip-path="url(#pcf3bd6ebd2)">
     <use xlink:href="#ma0e22b67f8" x="274.107756" y="366.150035" style="fill: #00ff00; fill-opacity: 0.6; stroke: #ffffff; stroke-opacity: 0.6; stroke-width: 0.5"/>
    </g>
   </g>
   <g id="Line3DCollection_10">
    <path d="M 254.681342 353.068536 
L 274.107756 366.150035 
" clip-path="url(#pcf3bd6ebd2)" style="fill: none; stroke: #ff00ff; stroke-opacity: 0.4; stroke-width: 1.5"/>
    <path d="M 254.681342 353.068536 
L 259.079138 358.057508 
" clip-path="url(#pcf3bd6ebd2)" style="fill: none; stroke: #ff00ff; stroke-opacity: 0.4; stroke-width: 1.5"/>
    <path d="M 254.681342 353.068536 
L 261.554121 355.668328 
" clip-path="url(#pcf3bd6ebd2)" style="fill: none; stroke: #ff00ff; stroke-opacity: 0.4; stroke-width: 1.5"/>
   </g>
   <g id="Path3DCollection_10">
    <g clip-path="url(#pcf3bd6ebd2)">
     <use xlink:href="#ma0e22b67f8" x="295.953093" y="366.304259" style="fill: #00ff00; fill-opacity: 0.6; stroke: #ffffff; stroke-opacity: 0.6; stroke-width: 0.5"/>
    </g>
   </g>
   <g id="Line3DCollection_11">
    <path d="M 312.088805 364.169918 
L 295.953093 366.304259 
" clip-path="url(#pcf3bd6ebd2)" style="fill: none; stroke: #ff00ff; stroke-opacity: 0.4; stroke-width: 1.5"/>
    <path d="M 312.088805 364.169918 
L 307.841013 366.405273 
" clip-path="url(#pcf3bd6ebd2)" style="fill: none; stroke: #ff00ff; stroke-opacity: 0.4; stroke-width: 1.5"/>
    <path d="M 312.088805 364.169918 
L 306.950603 363.175847 
" clip-path="url(#pcf3bd6ebd2)" style="fill: none; stroke: #ff00ff; stroke-opacity: 0.4; stroke-width: 1.5"/>
   </g>
   <g id="Path3DCollection_11">
    <g clip-path="url(#pcf3bd6ebd2)">
     <use xlink:href="#ma0e22b67f8" x="231.105573" y="308.090167" style="fill: #00ff00; fill-opacity: 0.6; stroke: #ffffff; stroke-opacity: 0.6; stroke-width: 0.5"/>
    </g>
   </g>
   <g id="Line3DCollection_12">
    <path d="M 239.330658 328.447166 
L 231.105573 308.090167 
" clip-path="url(#pcf3bd6ebd2)" style="fill: none; stroke: #ff00ff; stroke-opacity: 0.4; stroke-width: 1.5"/>
    <path d="M 239.330658 328.447166 
L 235.895088 323.013815 
" clip-path="url(#pcf3bd6ebd2)" style="fill: none; stroke: #ff00ff; stroke-opacity: 0.4; stroke-width: 1.5"/>
    <path d="M 239.330658 328.447166 
L 237.999326 322.079798 
" clip-path="url(#pcf3bd6ebd2)" style="fill: none; stroke: #ff00ff; stroke-opacity: 0.4; stroke-width: 1.5"/>
   </g>
   <g id="Path3DCollection_12">
    <g clip-path="url(#pcf3bd6ebd2)">
     <use xlink:href="#m6164f1b180" x="279.31827" y="284.42949" style="fill: #ff0000; fill-opacity: 0.8; stroke: #ffffff; stroke-opacity: 0.8"/>
    </g>
   </g>
   <g id="Path3DCollection_13">
    <g clip-path="url(#pcf3bd6ebd2)">
     <use xlink:href="#ma0e22b67f8" x="226.205316" y="323.28292" style="fill: #00ff00; fill-opacity: 0.6; stroke: #ffffff; stroke-opacity: 0.6; stroke-width: 0.5"/>
    </g>
   </g>
   <g id="Line3DCollection_13">
    <path d="M 219.907019 342.464913 
L 226.205316 323.28292 
" clip-path="url(#pcf3bd6ebd2)" style="fill: none; stroke: #ff00ff; stroke-opacity: 0.4; stroke-width: 1.5"/>
    <path d="M 219.907019 342.464913 
L 222.050648 337.855657 
" clip-path="url(#pcf3bd6ebd2)" style="fill: none; stroke: #ff00ff; stroke-opacity: 0.4; stroke-width: 1.5"/>
    <path d="M 219.907019 342.464913 
L 221.430258 335.904301 
" clip-path="url(#pcf3bd6ebd2)" style="fill: none; stroke: #ff00ff; stroke-opacity: 0.4; stroke-width: 1.5"/>
   </g>
   <g id="Path3DCollection_14">
    <defs>
     <path id="C0_0_7c840abd29" d="M 0 5 
C 1.326016 5 2.597899 4.473168 3.535534 3.535534 
C 4.473168 2.597899 5 1.326016 5 -0 
C 5 -1.326016 4.473168 -2.597899 3.535534 -3.535534 
C 2.597899 -4.473168 1.326016 -5 0 -5 
C -1.326016 -5 -2.597899 -4.473168 -3.535534 -3.535534 
C -4.473168 -2.597899 -5 -1.326016 -5 0 
C -5 1.326016 -4.473168 2.597899 -3.535534 3.535534 
C -2.597899 4.473168 -1.326016 5 0 5 
z
"/>
    </defs>
    <g clip-path="url(#pcf3bd6ebd2)">
     <use xlink:href="#C0_0_7c840abd29" x="240.772993" y="311.326155" style="fill: #00ffff; fill-opacity: 0.6; stroke: #ffffff; stroke-opacity: 0.6"/>
    </g>
    <g clip-path="url(#pcf3bd6ebd2)">
     <use xlink:href="#C0_0_7c840abd29" x="318.876038" y="338.878146" style="fill: #00ffff; fill-opacity: 0.6; stroke: #ffffff; stroke-opacity: 0.6"/>
    </g>
   </g>
   <g id="Path3DCollection_15">
    <g clip-path="url(#pcf3bd6ebd2)">
     <use xlink:href="#ma0e22b67f8" x="242.16047" y="265.085485" style="fill: #00ff00; fill-opacity: 0.6; stroke: #ffffff; stroke-opacity: 0.6; stroke-width: 0.5"/>
    </g>
   </g>
   <g id="Line3DCollection_14">
    <path d="M 249.459635 242.86035 
L 242.16047 265.085485 
" clip-path="url(#pcf3bd6ebd2)" style="fill: none; stroke: #ff00ff; stroke-opacity: 0.4; stroke-width: 1.5"/>
    <path d="M 249.459635 242.86035 
L 248.060283 249.748081 
" clip-path="url(#pcf3bd6ebd2)" style="fill: none; stroke: #ff00ff; stroke-opacity: 0.4; stroke-width: 1.5"/>
    <path d="M 249.459635 242.86035 
L 246.639223 248.817648 
" clip-path="url(#pcf3bd6ebd2)" style="fill: none; stroke: #ff00ff; stroke-opacity: 0.4; stroke-width: 1.5"/>
   </g>
   <g id="Path3DCollection_16">
    <g clip-path="url(#pcf3bd6ebd2)">
     <use xlink:href="#ma0e22b67f8" x="395.205614" y="306.980951" style="fill: #00ff00; fill-opacity: 0.6; stroke: #ffffff; stroke-opacity: 0.6; stroke-width: 0.5"/>
    </g>
   </g>
   <g id="Path3DCollection_17">
    <g clip-path="url(#pcf3bd6ebd2)">
     <use xlink:href="#ma0e22b67f8" x="298.008009" y="297.868707" style="fill: #00ff00; fill-opacity: 0.6; stroke: #ffffff; stroke-opacity: 0.6; stroke-width: 0.5"/>
    </g>
   </g>
   <g id="Line3DCollection_15">
    <path d="M 306.389903 276.354826 
L 298.008009 297.868707 
" clip-path="url(#pcf3bd6ebd2)" style="fill: none; stroke: #ff00ff; stroke-opacity: 0.4; stroke-width: 1.5"/>
    <path d="M 306.389903 276.354826 
L 304.586759 283.222489 
" clip-path="url(#pcf3bd6ebd2)" style="fill: none; stroke: #ff00ff; stroke-opacity: 0.4; stroke-width: 1.5"/>
    <path d="M 306.389903 276.354826 
L 303.351459 281.911158 
" clip-path="url(#pcf3bd6ebd2)" style="fill: none; stroke: #ff00ff; stroke-opacity: 0.4; stroke-width: 1.5"/>
   </g>
   <g id="Line3DCollection_16">
    <path d="M 375.307435 322.42268 
L 395.205614 306.980951 
" clip-path="url(#pcf3bd6ebd2)" style="fill: none; stroke: #ff00ff; stroke-opacity: 0.4; stroke-width: 1.5"/>
    <path d="M 375.307435 322.42268 
L 381.639666 319.224156 
" clip-path="url(#pcf3bd6ebd2)" style="fill: none; stroke: #ff00ff; stroke-opacity: 0.4; stroke-width: 1.5"/>
    <path d="M 375.307435 322.42268 
L 380.564042 316.626392 
" clip-path="url(#pcf3bd6ebd2)" style="fill: none; stroke: #ff00ff; stroke-opacity: 0.4; stroke-width: 1.5"/>
   </g>
   <g id="Path3DCollection_18">
    <g clip-path="url(#pcf3bd6ebd2)">
     <use xlink:href="#ma0e22b67f8" x="171.883416" y="335.747075" style="fill: #00ff00; fill-opacity: 0.6; stroke: #ffffff; stroke-opacity: 0.6; stroke-width: 0.5"/>
    </g>
   </g>
   <g id="Line3DCollection_17">
    <path d="M 152.315073 328.121347 
L 171.883416 335.747075 
" clip-path="url(#pcf3bd6ebd2)" style="fill: none; stroke: #ff00ff; stroke-opacity: 0.4; stroke-width: 1.5"/>
    <path d="M 152.315073 328.121347 
L 157.725308 331.884392 
" clip-path="url(#pcf3bd6ebd2)" style="fill: none; stroke: #ff00ff; stroke-opacity: 0.4; stroke-width: 1.5"/>
    <path d="M 152.315073 328.121347 
L 158.220634 328.767178 
" clip-path="url(#pcf3bd6ebd2)" style="fill: none; stroke: #ff00ff; stroke-opacity: 0.4; stroke-width: 1.5"/>
   </g>
   <g id="Path3DCollection_19">
    <g clip-path="url(#pcf3bd6ebd2)">
     <use xlink:href="#ma0e22b67f8" x="210.065179" y="365.931112" style="fill: #00ff00; fill-opacity: 0.6; stroke: #ffffff; stroke-opacity: 0.6; stroke-width: 0.5"/>
    </g>
   </g>
   <g id="Line3DCollection_18">
    <path d="M 208.799338 345.322963 
L 210.065179 365.931112 
" clip-path="url(#pcf3bd6ebd2)" style="fill: none; stroke: #ff00ff; stroke-opacity: 0.4; stroke-width: 1.5"/>
    <path d="M 208.799338 345.322963 
L 209.106954 352.122686 
" clip-path="url(#pcf3bd6ebd2)" style="fill: none; stroke: #ff00ff; stroke-opacity: 0.4; stroke-width: 1.5"/>
    <path d="M 208.799338 345.322963 
L 209.222762 350.422631 
" clip-path="url(#pcf3bd6ebd2)" style="fill: none; stroke: #ff00ff; stroke-opacity: 0.4; stroke-width: 1.5"/>
   </g>
  </g>
 </g>
 <defs>
  <clipPath id="pcf3bd6ebd2">
   <rect x="10.442594" y="37.837812" width="523.6" height="523.6"/>
  </clipPath>
 </defs>
</svg>
